<svg id="Layer_1" data-name="Layer 1" xmlns="http://www.w3.org/2000/svg" viewBox="0 0 612.78 128.02" width="113px" height="24px"><defs><style>.cls-1{fill:#003057;}.cls-2{fill:#0077bc;}</style></defs><title>Spectrum_Logo_DBlue_RGB</title><path class="cls-1" d="M56.11,138.4q9.54,8.15,28.65,8.14,18.54,0,28.65-7.86,10.11-8.43,10.11-23.59a26.13,26.13,0,0,0-3.09-12.92,22.63,22.63,0,0,0-9.46-9,40.58,40.58,0,0,0-7.36-2.84c-3.44-1.06-20.57-5.73-22.31-6.19C71.76,81.79,65.7,78.61,65.66,73c.49-10.92,10.67-11.8,16.29-11.8q8.7,0,13.76,3.65c6,4.71,5.37,10.68,5.37,10.68h19.06q-.57-14-10.11-22.76-9.27-7.86-26.4-7.86-18.26,0-27.8,7.58-9.55,7.87-9.55,21.63C46.31,85.87,51.9,92.82,57,96c3.08,1.84,10.06,4.66,19.1,6.46l7.59,1.65c13.17,3.21,20.73,7.28,20.49,13.79-.14,3.93-1.5,6.93-4.49,9-2.74,1.88-7.4,3.09-13.2,3.09Q76.61,130,71,126q-5.34-3.37-6.46-11.8H44.88q.84,16,11.23,24.15" transform="translate(-44.88 -44.88)"/><path class="cls-1" d="M146.72,163.3a9.52,9.52,0,0,1-9.6,9.6h-9.6V102.62c1.12-18.7,7.92-33.6,36.32-34.62,12.28.16,21.2,5,26.47,11.2,5.65,7.34,8.06,16.46,8.06,27.93q0,17.78-8.47,28.79-8.46,10.73-21.73,10.72c-13.27,0-19.71-5.52-21.46-6.56C146.71,140.73,146.72,163.3,146.72,163.3ZM178.9,108c0-7.34-1.35-22.86-16.37-22.86-14.27,0-15.81,15.15-15.81,22.86,0,19.53,11.1,22,16.37,22C176.74,130,178.9,115.53,178.9,108Z" transform="translate(-44.88 -44.88)"/><path class="cls-1" d="M237.11,84.57c12.07-.16,13.94,10.11,14.32,15.17H222.79S222.55,84.84,237.11,84.57Zm.84,45.22c-4.86-.24-14.13-1.2-15-17.41h48.67c0-.49,0-5.83,0-5.84-.34-12.21-3.27-21.32-9-28.15q-9.27-10.11-26.12-10.11-16,0-25,10.39-8.71,10.11-8.71,28.08,0,18.82,9,28.93,9,10.39,25,10.39,13.2,0,21.91-6.46c5.8-4.11,9.76-10.13,11.82-18H253.65C251.15,128.68,244.8,130.13,238,129.79Z" transform="translate(-44.88 -44.88)"/><path class="cls-1" d="M325.31,121.65h18.46s-5,24.43-32.9,24.43S276.12,123.7,276.12,109s2.61-39.82,33.67-40.7c28.69-.43,33.42,24.43,33.42,24.43H323.55s-1.91-8.41-13.61-8.14-14.76,11.25-14.76,21.7,2.6,23.51,15.59,23.51C323.13,130.16,324.22,123.49,325.31,121.65Z" transform="translate(-44.88 -44.88)"/><path class="cls-1" d="M367.6,89.93h11.55V70.25H367.62V57.61c0-3.47-1.93-9.55-9.27-9.55H348.24v82.57c0,8.61,3.34,13.76,10.57,13.76h8.79Z" transform="translate(-44.88 -44.88)"/><path class="cls-1" d="M399.72,144.53V106.06q0-8.42,3.93-12.36t12.08-3.93h6.46V69.83s-10.17-.25-17.55,2A37,37,0,0,0,392.13,78a30.43,30.43,0,0,0-8.85,11.94q-3.23,7.44-3.23,18.4v36.23Z" transform="translate(-44.88 -44.88)"/><path class="cls-1" d="M427.74,69.95H447.4v47.74s-.71,12.91,12.92,12.92c12.85,0,13.18-11.55,13.19-12.37v-39s.66-9.26,9.19-9.26h10.2s0,43.92,0,44.34c-.14,2.42,2.58,31.78-32.58,31.67-34.83,0-32.36-29.71-32.58-31.46Z" transform="translate(-44.88 -44.88)"/><path class="cls-1" d="M563.88,144.78H544.41v-48c0-5.53-2.28-13-13.27-13-10.78,0-13,8.47-13,13v48H498.4v-44c0-12.79,3.79-20.61,10-25.69s14.06-6.68,22.15-7.06a57.25,57.25,0,0,1,12.7,1.41,26.73,26.73,0,0,1,11.29,5.64,25,25,0,0,1,10-5.22,47.22,47.22,0,0,1,12-1.83c24.1-.13,33.77,10.91,34.57,14.45,0,.05,0,62.32,0,62.32H600c-2.82,0-9.6-1.92-9.6-9.6V96.79c.05-5.44-1.85-13-13.27-13s-13.27,8.47-13.27,13Z" transform="translate(-44.88 -44.88)"/><polygon class="cls-2" points="571.76 37.54 571.76 99.81 612.78 68.68 571.76 37.54"/></svg>
