<svg xmlns="http://www.w3.org/2000/svg" viewBox="0 0 69 23.28"><path fill="#000000" d="M7.71 11.76L12 6h-1.77a2 2 0 0 0-1.76.86L6.19 9.88 4 6.81A2 2 0 0 0 2.21 6H.4l4.28 5.81L0 18.09h1.71a2 2 0 0 0 1.76-.86l2.71-3.59 6.35 8.78a2 2 0 0 0 1.76.86h1.86zm34.68 6.33h2.45V6h-2.45zm-19.45 0h2.46V6h-2.46zm37.18 4.28L69 6h-1.33a1.81 1.81 0 0 0-1.76.86l-3.5 6.5-3-6.5A1.75 1.75 0 0 0 57.62 6h-1.28L61 15.85l-4.07 7.43h1.33a2 2 0 0 0 1.86-.91zM28.32 6v12.09h2.45V9.76A3.86 3.86 0 0 1 34 8c1.81 0 3 1.14 3 3.43v5.47a1.11 1.11 0 0 0 1.14 1.17h1.31V11c0-3.14-2-5.33-4.9-5.33a5.47 5.47 0 0 0-3.81 1.45V6zm21.06 7.83a4.21 4.21 0 0 0 4.52 4.52 6.23 6.23 0 0 0 1.79-.24l-.5-2.14a5 5 0 0 1-1.12.12 2.08 2.08 0 0 1-2.24-2.31V8.14h3.43L54.27 6h-2.43V1.07l-2.45 1.07V6h-2.6v2.14h2.59zm-34-5.64v9.95h2.45v-10H21V6h-3.15V5c0-2.07 1.24-2.76 2.45-2.76a2.93 2.93 0 0 1 .83.12l.5-2.17A4.29 4.29 0 0 0 20.11 0c-3 0-4.71 2.26-4.71 5v1h-1.29l-1.54 2.14z"/></svg>