<?xml version="1.0" encoding="UTF-8" standalone="no"?>
<svg
   xmlns:dc="http://purl.org/dc/elements/1.1/"
   xmlns:cc="http://creativecommons.org/ns#"
   xmlns:rdf="http://www.w3.org/1999/02/22-rdf-syntax-ns#"
   xmlns:svg="http://www.w3.org/2000/svg"
   xmlns="http://www.w3.org/2000/svg"
   xmlns:sodipodi="http://sodipodi.sourceforge.net/DTD/sodipodi-0.dtd"
   xmlns:inkscape="http://www.inkscape.org/namespaces/inkscape"
   viewBox="0 0 936.95471 203.57166"
   version="1.1"
   id="svg14"
   sodipodi:docname="cd5a0410e516c36035de47227e8e020d488baaeb.svg"
   width="936.95471"
   height="203.57166"
   inkscape:version="1.0.1 (3bc2e813f5, 2020-09-07)">
  <metadata
     id="metadata20">
    <rdf:RDF>
      <cc:Work
         rdf:about="">
        <dc:format>image/svg+xml</dc:format>
        <dc:type
           rdf:resource="http://purl.org/dc/dcmitype/StillImage" />
      </cc:Work>
    </rdf:RDF>
  </metadata>
  <defs
     id="defs18" />
  <sodipodi:namedview
     pagecolor="#ffffff"
     bordercolor="#666666"
     borderopacity="1"
     objecttolerance="10"
     gridtolerance="10"
     guidetolerance="10"
     inkscape:pageopacity="0"
     inkscape:pageshadow="2"
     inkscape:window-width="747"
     inkscape:window-height="480"
     id="namedview16"
     showgrid="false"
     inkscape:zoom="0.46013944"
     inkscape:cx="495.82471"
     inkscape:cy="103.68471"
     inkscape:window-x="0"
     inkscape:window-y="27"
     inkscape:window-maximized="0"
     inkscape:current-layer="svg14" />
  <desc
     id="desc2">Fastmail</desc>
  <path
     class="wordmark"
     d="m 330.36471,34.554714 v 19.12 h -62.19 v 39.92 h 54.76 v 19.119996 h -54.76 v 55.47 h -22.1 V 34.554714 Z m 89.8,132.549996 v 1.08 h -19.34 a 35,35 0 0 1 -2.23,-5.57 71.85,71.85 0 0 1 -30.07,7.42 c -22.47,0 -35.83,-11.13 -35.83,-30.44 0,-18.94 16.52,-31.38 42,-31.38 a 120.76,120.76 0 0 1 20.24,1.67 v -2.7 c 0,-13.919996 -8.35,-20.789996 -23.39,-20.789996 a 90,90 0 0 0 -28.8,4.79 l -5.38,-15.41 c 12.62,-4.64 24.32,-7 36.39,-7 16.15,0 25.62,4.08 32.11,10.4 6.69,6.68 9.66,16.33 9.66,27.999996 v 30.63 c 0,9.62 1.3,20.38 4.64,29.3 z m -48.27,-13.55 a 53.1,53.1 0 0 0 23,-5.38 v -23.58 a 90.22,90.22 0 0 0 -18.75,-1.67 c -15.22,0 -23,5.94 -23,15.78 0,10.02 6.68,14.85 18.75,14.85 z m 135.99,-79.089996 -5.2,15.6 a 101.71,101.71 0 0 0 -29.52,-4.46 c -11.88,0 -17.45,4.46 -17.45,10.59 0,6.309996 4.27,9.999996 19.86,13.919996 27.67,6.87 37.88,15.41 37.88,30.07 0,19.87 -14.85,29.89 -42,29.89 a 124.09,124.09 0 0 1 -39.36,-6.49 l 5.39,-15.6 a 123.29,123.29 0 0 0 34,5.39 c 14.85,0 21.35,-3.9 21.35,-11.14 0,-5.94 -4.45,-9.84 -23.21,-14.3 -25.43,-6.12 -34.15,-15 -34.15,-30.629996 0,-16.52 13.36,-28.59 37.68,-28.59 a 107.31,107.31 0 0 1 34.73,5.75 z m 78.25,91.529996 a 62.21,62.21 0 0 1 -22.09,4.08 c -8.54,0 -16.34,-2.22 -21.17,-7 -5,-5 -7.24,-11.51 -7.24,-22.46 V 88.184714 h -15.81 v -17.61 h 15.78 v -23.58 h 21.22 v 23.58 h 24.69 v 17.61 h -24.69 v 49.569996 c 0,10 4.45,14.48 13,14.48 a 50.34,50.34 0 0 0 13.18,-2 z m 160.69,-62.01 v 64.2 h -21.32 v -61 c 0,-12.809996 -7.8,-20.239996 -20.24,-20.239996 -7.61,0 -15.78,1.86 -21.72,5.2 v 76.039996 h -21.17 v -61.78 c 0,-13.739996 -6.86,-19.499996 -18.75,-19.499996 a 50.63,50.63 0 0 0 -23,6.32 v 74.999996 h -21.37 V 70.574714 h 20.05 v 6.68 a 65,65 0 0 1 31.94,-8.54 38.27,38.27 0 0 1 25.8,9.65 70.82,70.82 0 0 1 35.46,-9.65 c 10.77,0 19.86,3.53 25.43,9.28 6.32,6.31 8.89,14.3 8.89,25.989996 z m 104.06,63.12 v 1.08 h -19.3 a 34.07,34.07 0 0 1 -2.23,-5.57 71.93,71.93 0 0 1 -30.08,7.42 c -22.46,0 -35.83,-11.13 -35.83,-30.44 0,-18.94 16.52,-31.38 42,-31.38 a 120.63,120.63 0 0 1 20.23,1.67 v -2.7 c 0,-13.919996 -8.35,-20.789996 -23.39,-20.789996 a 90,90 0 0 0 -28.81,4.79 l -5.39,-15.41 c 12.63,-4.64 24.32,-7 36.39,-7 16.15,0 25.62,4.08 32.12,10.4 6.68,6.68 9.65,16.33 9.65,27.999996 v 30.63 c 0,9.62 1.3,20.38 4.64,29.3 z m -48.27,-13.55 a 53,53 0 0 0 23,-5.38 v -23.58 a 90.22,90.22 0 0 0 -18.75,-1.67 c -15.22,0 -23,5.94 -23,15.78 -0.04,10.02 6.69,14.85 18.75,14.85 z m 88.69,-120.109996 v 18.38 h -21.35 v -18.38 z m 0,37.13 v 97.609996 h -21.35 V 70.574714 Z m 45.65,-39.73 V 168.18471 h -21.35 V 30.844714 Z"
     fill="#333e48"
     id="path4" />
  <path
     d="M 168.67471,57.184714 A 80.391313,80.391313 0 0 1 34.904714,146.38471 l -17.81,11.86 A 101.78194,101.78194 0 0 0 186.47471,45.334714 Z"
     fill="#69b3e7"
     id="path6" />
  <path
     d="M 21.154714,101.41471 A 80.39,80.39 0 0 1 168.67471,57.184714 l 17.8,-11.86 A 101.78471,101.78471 0 1 0 17.094714,158.24471 l 17.81,-11.86 a 80,80 0 0 1 -13.75,-44.97 z"
     fill="#0067b9"
     id="path8" />
  <path
     d="m 53.154714,133.67471 h 93.369996 a 3.41,3.41 0 0 0 3.41,-3.41 V 69.184714 Z"
     fill="#333e48"
     id="path10" />
  <path
     class="opacity"
     d="M 101.54471,101.41471 53.154714,69.184714 v 64.519996 z"
     fill="#ffc107"
     id="path12" />
</svg>
