<?xml version="1.0" encoding="UTF-8" standalone="no"?>
<svg
   xmlns:dc="http://purl.org/dc/elements/1.1/"
   xmlns:cc="http://creativecommons.org/ns#"
   xmlns:rdf="http://www.w3.org/1999/02/22-rdf-syntax-ns#"
   xmlns:svg="http://www.w3.org/2000/svg"
   xmlns="http://www.w3.org/2000/svg"
   version="1.1"
   id="svg2"
   height="90"
   width="220">
  <title
     id="title6197">Frontier Communications logo 2016</title>
  <defs
     id="defs4">
    <clipPath
       clipPathUnits="userSpaceOnUse"
       id="clipPath3859">
      <path
         d="m 27.4,29.389 138.794,0 0,55.338 -138.794,0 0,-55.338 z"
         id="path3861" />
    </clipPath>
    <clipPath
       clipPathUnits="userSpaceOnUse"
       id="clipPath3823">
      <path
         d="m 22.48,13.164 171.872,0 0,89.246 -171.872,0 0,-89.246 z"
         id="path3825" />
    </clipPath>
    <clipPath
       clipPathUnits="userSpaceOnUse"
       id="clipPath3807">
      <path
         d="m 27.4,29.389 138.794,0 0,55.338 -138.794,0 0,-55.338 z"
         id="path3809" />
    </clipPath>
    <clipPath
       clipPathUnits="userSpaceOnUse"
       id="clipPath3721">
      <path
         d="m 22.48,13.164 171.872,0 0,89.246 -171.872,0 0,-89.246 z"
         id="path3723" />
    </clipPath>
    <clipPath
       clipPathUnits="userSpaceOnUse"
       id="clipPath3109">
      <path
         d="M 0,0 612,0 612,792 0,792 0,0 z"
         id="path3111" />
    </clipPath>
    <clipPath
       clipPathUnits="userSpaceOnUse"
       id="clipPath3087">
      <path
         d="M 0,0 612,0 612,792 0,792 0,0 z"
         id="path3089" />
    </clipPath>
    <clipPath
       clipPathUnits="userSpaceOnUse"
       id="clipPath3065">
      <path
         d="m 41,554.63 530,0 0,-70.88 -530,0 0,70.88 z"
         id="path3067" />
    </clipPath>
    <clipPath
       clipPathUnits="userSpaceOnUse"
       id="clipPath3057">
      <path
         d="M 0,0 612,0 612,792 0,792 0,0 z"
         id="path3059" />
    </clipPath>
    <clipPath
       clipPathUnits="userSpaceOnUse"
       id="clipPath3015">
      <path
         d="m 27.36,491.724 557.64,0 0,273.276 -557.64,0 0,-273.276 z"
         id="path3017" />
    </clipPath>
  </defs>
  <metadata
     id="metadata7">
    <rdf:RDF>
      <cc:Work
         rdf:about="">
        <dc:format>image/svg+xml</dc:format>
        <dc:type
           rdf:resource="http://purl.org/dc/dcmitype/StillImage" />
        <dc:title>Frontier Communications logo 2016</dc:title>
        <dc:date>2016-01-06</dc:date>
        <dc:creator>
          <cc:Agent>
            <dc:title>Frontier Communications Corporation</dc:title>
          </cc:Agent>
        </dc:creator>
        <dc:publisher>
          <cc:Agent>
            <dc:title>Frontier Communications Corporation</dc:title>
          </cc:Agent>
        </dc:publisher>
        <dc:source>http://meetfrontier.com/uploads/16-0317-FTR-Overview-VZ-CA-v8.pdf</dc:source>
        <dc:description>New Frontier Communications logo extracted from the California Press Kit, issued in PDF format.</dc:description>
        <dc:contributor>
          <cc:Agent>
            <dc:title>Hydrargyrum for WIkimedia Foundation.</dc:title>
          </cc:Agent>
        </dc:contributor>
      </cc:Work>
    </rdf:RDF>
  </metadata>
  <g
     transform="translate(-251.14757,-1093.3707)"
     id="layer1">
    <rect
       ry="0.031573478"
       y="1093.3707"
       x="251.14757"
       height="90"
       width="220"
       id="rect6218"
       style="fill:#000000;fill-opacity:0;stroke:none" />
    <g
       transform="matrix(1.2565186,0,0,1.2565186,-91.384532,-293.94993)"
       id="g6162">
      <path
         id="path3715"
         style="fill:#db202c;fill-opacity:1;fill-rule:nonzero;stroke:none"
         d="m 297.63243,1122.3538 0,5.98 -17.41375,0 0,9.0213 16.47,0 0,5.77 -16.47,0 0,15.0537 -6.81875,0 0,-35.825 24.2325,0 z" />
      <path
         id="path3727"
         style="fill:#db202c;fill-opacity:1;fill-rule:nonzero;stroke:none"
         d="m 315.98868,1139.7153 c -0.89125,-0.315 -1.62625,-0.525 -2.57,-0.525 -3.83,0 -6.92375,3.8288 -6.92375,9.3375 l 0,9.6513 -6.50375,0 0,-24.3913 6.45125,0 0,3.9875 0.105,0 c 1.46875,-2.885 3.56625,-4.5637 6.71375,-4.5637 1.15375,0 1.94125,0.2625 2.7275,0.5762 l 0,5.9275 z" />
      <path
         id="path3731"
         style="fill:#db202c;fill-opacity:1;fill-rule:nonzero;stroke:none"
         d="m 442.75643,1139.7153 c -0.89125,-0.315 -1.62625,-0.525 -2.57,-0.525 -3.83,0 -6.92375,3.8288 -6.92375,9.3375 l 0,9.6513 -6.50375,0 0,-24.3913 6.45125,0 0,3.9875 0.105,0 c 1.46875,-2.885 3.56625,-4.5637 6.71375,-4.5637 1.15375,0 1.94125,0.2625 2.7275,0.5762 l 0,5.9275 z" />
      <path
         id="path3735"
         style="fill:#db202c;fill-opacity:1;fill-rule:nonzero;stroke:none"
         d="m 323.38343,1145.9572 c 0,4.3538 3.2525,7.0288 6.55625,7.0288 3.77625,0 6.295,-3.5675 6.295,-6.9238 0,-3.5662 -2.6225,-7.0812 -6.2425,-7.0812 -3.77625,0 -6.60875,2.99 -6.60875,6.9762 m 19.82625,0.053 c 0,6.3988 -5.0875,12.7463 -13.48,12.7463 -8.1825,0 -13.3225,-5.98 -13.3225,-12.6938 0,-7.6575 6.39875,-12.85 13.06,-12.85 9.0225,0 13.7425,6.5563 13.7425,12.7975" />
      <path
         id="path3739"
         style="fill:#db202c;fill-opacity:1;fill-rule:nonzero;stroke:none"
         d="m 368.12306,1158.1785 -6.50375,0 0,-14.1625 c 0,-2.5175 -0.735,-4.5112 -3.5675,-4.5112 -3.93375,0 -6.24125,4.0925 -6.24125,8.76 l 0,9.9137 -6.50375,0 0,-24.39 6.49875,0 0.005,3.8288 c 1.04875,-1.5738 2.99,-4.4063 7.71,-4.4063 5.875,0 8.6025,4.0388 8.6025,9.0738 l 0,15.8937 z" />
      <path
         d="m 396.44343,1158.178 -6.50375,0 0,-24.39 6.50375,0 0,24.39 z"
         style="fill:#db202c;fill-opacity:1;fill-rule:nonzero;stroke:none"
         id="path3741" />
      <path
         id="path3745"
         style="fill:#db202c;fill-opacity:1;fill-rule:nonzero;stroke:none"
         d="m 416.53218,1142.3902 c -0.42,-2.78 -2.8325,-4.3012 -4.93,-4.3012 -0.525,0 -4.14375,0.1587 -5.5075,4.3012 l 10.4375,0 z m 7.02875,4.4588 -18.04375,0 c 0.3675,1.2062 0.6825,2.0975 1.52125,3.1475 1.57375,1.8875 3.88125,2.7787 5.9275,2.7787 3.56625,0 6.81875,-1.835 9.65,-4.0375 l 0,6.66 c -2.15,1.155 -6.18875,3.3575 -10.7,3.3575 -7.7625,0 -13.165,-5.9262 -13.165,-12.6937 0,-6.8188 5.455,-12.85 12.69375,-12.85 7.3425,0 12.11625,5.245 12.11625,12.6412 l 0,0.9963 z" />
      <path
         id="path3749"
         style="fill:#db202c;fill-opacity:1;fill-rule:nonzero;stroke:none"
         d="m 379.63818,1126.4976 0,7.3438 6.81875,0 0,4.8775 -6.60875,0 0,10.6475 c 0,2.7275 1.46875,3.4087 3.1475,3.4087 1.31125,0 2.465,-0.4187 3.46125,-0.8387 l 0,5.77 c -1.94125,0.525 -3.93375,0.8399 -5.9275,0.8399 -4.405,0 -7.185,-2.2562 -7.185,-6.9775 l 0,-12.8499 -4.03875,0 0,-4.8775 4.04125,0 0,-7.3713 6.29125,0" />
      <path
         id="path3753"
         style="fill:#db202c;fill-opacity:1;fill-rule:nonzero;stroke:none"
         d="m 385.59355,1119.037 c 0,1.7125 -1.3875,3.1025 -3.10125,3.1025 -1.71375,0 -3.10125,-1.39 -3.10125,-3.1025 0,-1.7125 1.3875,-3.1012 3.10125,-3.1012 1.71375,0 3.10125,1.3887 3.10125,3.1012" />
      <path
         id="path3757"
         style="fill:#db202c;fill-opacity:1;fill-rule:nonzero;stroke:none"
         d="m 374.2463,1113.0808 c 0,1.4413 -1.16875,2.6112 -2.6125,2.6112 -1.44125,0 -2.60875,-1.1699 -2.60875,-2.6112 0,-1.4413 1.1675,-2.6112 2.60875,-2.6112 1.44375,0 2.6125,1.1699 2.6125,2.6112" />
      <path
         id="path3761"
         style="fill:#db202c;fill-opacity:1;fill-rule:nonzero;stroke:none"
         d="m 363.39168,1109.3257 c 0,1.3525 -1.095,2.4488 -2.4475,2.4488 -1.35375,0 -2.4475,-1.0963 -2.4475,-2.4488 0,-1.3525 1.09375,-2.4475 2.4475,-2.4475 1.3525,0 2.4475,1.095 2.4475,2.4475" />
      <path
         id="path3765"
         style="fill:#db202c;fill-opacity:1;fill-rule:nonzero;stroke:none"
         d="m 351.80106,1107.4467 c 0,1.1713 -0.9475,2.1212 -2.12125,2.1212 -1.17125,0 -2.12125,-0.9499 -2.12125,-2.1212 0,-1.1713 0.95,-2.1212 2.12125,-2.1212 1.17375,0 2.12125,0.9499 2.12125,2.1212" />
      <path
         id="path3769"
         style="fill:#db202c;fill-opacity:1;fill-rule:nonzero;stroke:none"
         d="m 340.04693,1107.4467 c 0,0.9913 -0.80375,1.795 -1.79625,1.795 -0.99125,0 -1.7925,-0.8037 -1.7925,-1.795 0,-0.9912 0.80125,-1.795 1.7925,-1.795 0.9925,0 1.79625,0.8038 1.79625,1.795" />
      <path
         id="path3773"
         style="fill:#db202c;fill-opacity:1;fill-rule:nonzero;stroke:none"
         d="m 328.6583,1108.9165 c 0,0.8775 -0.71125,1.59 -1.58875,1.59 -0.87875,0 -1.59,-0.7125 -1.59,-1.59 0,-0.8787 0.71125,-1.59 1.59,-1.59 0.8775,0 1.58875,0.7113 1.58875,1.59" />
      <path
         id="path3777"
         style="fill:#db202c;fill-opacity:1;fill-rule:nonzero;stroke:none"
         d="m 317.47693,1112.9978 c 0,0.6075 -0.4925,1.0988 -1.1,1.0988 -0.6075,0 -1.1,-0.4913 -1.1,-1.0988 0,-0.6075 0.4925,-1.1 1.1,-1.1 0.6075,0 1.1,0.4925 1.1,1.1" />
      <path
         id="path3781"
         style="fill:#db202c;fill-opacity:1;fill-rule:nonzero;stroke:none"
         d="m 308.24806,1119.1667 c 0,0.38 -0.30625,0.6875 -0.68625,0.6875 -0.38,0 -0.6875,-0.3075 -0.6875,-0.6875 0,-0.38 0.3075,-0.6875 0.6875,-0.6875 0.38,0 0.68625,0.3075 0.68625,0.6875" />
      <path
         id="path3785"
         style="fill:#db202c;fill-opacity:1;fill-rule:nonzero;stroke:none"
         d="m 302.71968,1126.0222 c 0,0.2838 -0.23,0.515 -0.51625,0.515 -0.28375,0 -0.515,-0.2312 -0.515,-0.515 0,-0.285 0.23125,-0.5162 0.515,-0.5162 0.28625,0 0.51625,0.2312 0.51625,0.5162" />
      <path
         id="path3789"
         style="fill:#db202c;fill-opacity:1;fill-rule:nonzero;stroke:none"
         d="m 396.56605,1127.3418 c 0,1.8988 -1.56625,3.4175 -3.46375,3.4175 -1.99375,0 -3.465,-1.6137 -3.465,-3.465 0,-2.04 1.70875,-3.4637 3.3225,-3.4637 1.18625,0 3.60625,0.9962 3.60625,3.5112" />
      <path
         id="path3793"
         style="fill:#4f4c4d;fill-opacity:1;fill-rule:nonzero;stroke:none"
         d="m 283.09568,1172.898 c -1.0975,1.0975 -2.5,1.585 -4.01,1.585 -3.8575,0 -5.625,-2.6675 -5.625,-5.4725 0,-2.8062 1.79875,-5.595 5.625,-5.595 1.44875,0 2.805,0.5175 3.90375,1.6162 l -1.14375,1.0976 c -0.7775,-0.7475 -1.76875,-1.0976 -2.76,-1.0976 -2.72875,0 -3.93375,1.9963 -3.93375,3.9638 0,1.9512 1.19,3.8875 3.93375,3.8875 0.99125,0 2.08875,-0.4125 2.83625,-1.1587 l 1.17375,1.1737 z" />
      <path
         id="path3797"
         style="fill:#4f4c4d;fill-opacity:1;fill-rule:nonzero;stroke:none"
         d="m 290.40943,1172.9285 c 2.6525,0 3.76625,-1.8912 3.76625,-3.9187 0,-1.9663 -1.11375,-4.01 -3.73625,-4.0551 -2.485,0 -3.79625,1.7226 -3.79625,4.0551 0.0463,1.8912 1.11375,3.9187 3.76625,3.9187 m 5.4575,-3.9487 c 0,2.8812 -1.7525,5.5187 -5.4575,5.5187 -3.705,0 -5.45875,-2.6987 -5.45875,-5.5037 0,-3.2476 2.2725,-5.595 5.48875,-5.595 3.64375,0 5.4275,2.6987 5.4275,5.58" />
      <path
         id="path3801"
         style="fill:#4f4c4d;fill-opacity:1;fill-rule:nonzero;stroke:none"
         d="m 308.34043,1166.098 -3.62875,5.0463 -0.365,0 -3.58375,-5.0463 0,8.1875 -1.7075,0 0,-10.6725 1.9825,0 3.52125,5.0012 3.5075,-5.0012 1.98125,0 0,10.6725 -1.7075,0 0,-8.1875 z" />
      <path
         id="path3813"
         style="fill:#4f4c4d;fill-opacity:1;fill-rule:nonzero;stroke:none"
         d="m 323.12018,1166.098 -3.62875,5.0463 -0.36625,0 -3.5825,-5.0463 0,8.1875 -1.7075,0 0,-10.6725 1.9825,0 3.52125,5.0012 3.50625,-5.0012 1.9825,0 0,10.6725 -1.7075,0 0,-8.1875 z" />
      <path
         id="path3817"
         style="fill:#4f4c4d;fill-opacity:1;fill-rule:nonzero;stroke:none"
         d="m 337.5673,1163.6128 0,6.2513 c 0,3.1412 -2.07375,4.695 -4.65,4.62 -2.37875,-0.046 -4.40625,-1.6013 -4.40625,-4.62 l 0,-6.2513 1.6925,0 0,6.2513 c 0,1.9212 1.1275,3.0037 2.71375,3.0487 1.7075,0.076 2.9575,-1.0062 2.9575,-3.0487 l 0,-6.2513 1.6925,0 z" />
      <path
         id="path3829"
         style="fill:#4f4c4d;fill-opacity:1;fill-rule:nonzero;stroke:none"
         d="m 348.60718,1171.1903 0,-7.5925 1.7075,0 0,10.6725 -1.29625,0 -6.0525,-7.5312 0,7.5312 -1.7225,0 0,-10.6725 1.31125,0 6.0525,7.5925 z" />
      <path
         d="m 354.09343,1163.598 1.6925,0 0,10.6725 -1.6925,0 0,-10.6725 z"
         style="fill:#4f4c4d;fill-opacity:1;fill-rule:nonzero;stroke:none"
         id="path3831" />
      <path
         id="path3835"
         style="fill:#4f4c4d;fill-opacity:1;fill-rule:nonzero;stroke:none"
         d="m 368.56968,1172.898 c -1.0975,1.0975 -2.5,1.585 -4.01,1.585 -3.85625,0 -5.625,-2.6675 -5.625,-5.4725 0,-2.8062 1.79875,-5.595 5.625,-5.595 1.44875,0 2.805,0.5175 3.90375,1.6162 l -1.14375,1.0976 c -0.7775,-0.7475 -1.76875,-1.0976 -2.76,-1.0976 -2.72875,0 -3.9325,1.9963 -3.9325,3.9638 0,1.9512 1.18875,3.8875 3.9325,3.8875 0.99125,0 2.08875,-0.4125 2.83625,-1.1587 l 1.17375,1.1737 z" />
      <path
         id="path3839"
         style="fill:#4f4c4d;fill-opacity:1;fill-rule:nonzero;stroke:none"
         d="m 376.17493,1165.3967 -2.25625,5.0775 4.5125,0 -2.25625,-5.0775 z m 2.88125,6.6325 -5.7775,0 -1.00625,2.2413 -1.815,0 4.7875,-10.6725 1.86,0 4.7875,10.6725 -1.815,0 -1.02125,-2.2413 z" />
      <path
         id="path3843"
         style="fill:#4f4c4d;fill-opacity:1;fill-rule:nonzero;stroke:none"
         d="m 385.59718,1165.138 -3.50625,0 0,-1.54 8.72125,0 0,1.54 -3.4925,0 0,9.1325 -1.7225,0 0,-9.1325 z" />
      <path
         d="m 393.44843,1163.598 1.6925,0 0,10.6725 -1.6925,0 0,-10.6725 z"
         style="fill:#4f4c4d;fill-opacity:1;fill-rule:nonzero;stroke:none"
         id="path3845" />
      <path
         id="path3849"
         style="fill:#4f4c4d;fill-opacity:1;fill-rule:nonzero;stroke:none"
         d="m 403.74718,1172.9285 c 2.6525,0 3.76625,-1.8912 3.76625,-3.9187 0,-1.9663 -1.11375,-4.01 -3.735,-4.0551 -2.485,0 -3.79625,1.7226 -3.79625,4.0551 0.045,1.8912 1.1125,3.9187 3.765,3.9187 m 5.45875,-3.9487 c 0,2.8812 -1.75375,5.5187 -5.45875,5.5187 -3.705,0 -5.4575,-2.6987 -5.4575,-5.5037 0,-3.2476 2.27125,-5.595 5.48875,-5.595 3.6425,0 5.4275,2.6987 5.4275,5.58" />
      <path
         id="path3853"
         style="fill:#4f4c4d;fill-opacity:1;fill-rule:nonzero;stroke:none"
         d="m 419.75768,1171.1903 0,-7.5925 1.7075,0 0,10.6725 -1.29625,0 -6.0525,-7.5312 0,7.5312 -1.7225,0 0,-10.6725 1.31125,0 6.0525,7.5925 z" />
      <path
         id="path3865"
         style="fill:#4f4c4d;fill-opacity:1;fill-rule:nonzero;stroke:none"
         d="m 431.61143,1166.0522 c -0.5025,-0.7312 -1.525,-1.1737 -2.6375,-1.1887 -1.4325,0 -2.47,0.5937 -2.47,1.525 0,1.0362 1.18875,1.3262 2.5925,1.5237 2.195,0.32 4.28375,0.915 4.28375,3.2788 0,2.3925 -2.19625,3.2925 -4.42125,3.2925 -2.05875,0 -3.61375,-0.625 -4.58875,-2.4238 l 1.28,-0.8537 c 0.7775,1.295 2.08875,1.7525 3.32375,1.7525 1.28125,0 2.69875,-0.4113 2.69875,-1.7675 0,-1.0988 -1.22,-1.525 -2.72875,-1.7238 -2.12,-0.2887 -4.1325,-0.8225 -4.1325,-3.11 0.0463,-2.0575 2.165,-2.9725 4.1175,-2.9725 1.53875,0 3.07875,0.3663 3.97875,1.7988 l -1.29625,0.8687 z" />
      <path
         id="path3869"
         style="fill:#db202c;fill-opacity:1;fill-rule:nonzero;stroke:none"
         d="m 445.49518,1133.7616 0.52125,0.725 0.52625,-0.725 0.3525,0 0,1.6713 -0.36375,0 0.0163,-1.0988 -0.5,0.7013 -0.0788,0 -0.48875,-0.7188 0.015,1.1163 -0.36875,0 0,-1.6713 0.36875,0 z m -2.0675,0.345 0,-0.3387 1.4675,0 0,0.3387 -0.5525,0 0,1.3263 -0.3625,0 0,-1.3263 -0.5525,0 z" />
    </g>
  </g>
</svg>
