<?xml version="1.0" standalone="no"?>
<!DOCTYPE svg PUBLIC "-//W3C//DTD SVG 20010904//EN"
 "http://www.w3.org/TR/2001/REC-SVG-20010904/DTD/svg10.dtd">
<svg version="1.0" xmlns="http://www.w3.org/2000/svg"
 width="1129.000000pt" height="252.000000pt" viewBox="0 0 1129.000000 252.000000"
 preserveAspectRatio="xMidYMid meet">

<g transform="translate(0.000000,252.000000) scale(0.100000,-0.100000)"
fill="#000000" stroke="none">
<path d="M1 1548 l1 -973 22 70 c53 160 135 335 209 445 48 70 138 180 148
180 16 0 10 -17 -33 -86 -132 -218 -209 -520 -179 -700 64 -378 409 -390 944
-34 364 243 704 572 945 917 190 273 337 572 402 818 29 110 60 271 60 313 l0
22 -1260 0 -1260 0 1 -972z"/>
<path d="M3589 1783 c0 -406 -2 -754 -4 -773 -2 -19 -6 -75 -9 -125 -17 -242
-86 -391 -220 -469 -67 -39 -181 -73 -293 -87 -95 -12 -102 -14 -98 -33 2 -12
12 -72 21 -134 l17 -114 81 7 c113 9 272 41 358 71 136 49 207 92 299 184 73
72 94 100 132 180 41 84 70 181 93 305 4 22 9 419 11 883 l4 842 -195 0 -196
0 -1 -737z"/>
<path d="M11082 2360 c-68 -42 -92 -132 -52 -197 51 -85 189 -85 240 0 73 120
-69 269 -188 197z m116 -24 c62 -32 74 -126 23 -177 -65 -65 -171 -20 -171 73
1 93 72 143 148 104z"/>
<path d="M11094 2240 c0 -69 3 -80 18 -80 12 0 18 10 20 38 l3 37 23 -37 c13
-21 30 -38 38 -38 18 0 18 10 -2 39 -16 22 -16 24 0 33 19 10 21 59 4 76 -7 7
-33 12 -58 12 l-46 0 0 -80z m75 51 c19 -12 6 -41 -19 -41 -13 0 -20 7 -20 18
0 31 14 39 39 23z"/>
<path d="M6857 1218 c2 -634 3 -1156 3 -1160 0 -5 81 -8 180 -8 l180 0 2 671
3 670 649 -695 c357 -383 650 -696 652 -696 2 0 4 522 4 1160 l0 1160 -182 -2
-183 -3 0 -678 c0 -372 -3 -676 -7 -675 -3 2 -295 318 -647 703 -352 385 -644
701 -648 702 -5 2 -7 -516 -6 -1149z"/>
<path d="M9976 2334 c-222 -44 -409 -147 -573 -317 -220 -228 -333 -510 -333
-827 0 -218 34 -370 124 -555 243 -499 788 -744 1291 -580 460 150 775 600
778 1110 1 156 -14 256 -58 391 -100 306 -305 551 -571 683 -94 47 -221 88
-313 101 -92 13 -263 11 -345 -6z m347 -410 c211 -54 383 -203 481 -416 87
-188 96 -404 25 -603 -68 -190 -237 -371 -412 -442 -69 -28 -188 -53 -253 -53
-84 0 -197 29 -294 77 -80 39 -109 60 -186 138 -80 79 -98 104 -143 196 -64
132 -85 220 -84 364 3 485 432 851 866 739z"/>
<path d="M4610 1593 c0 -413 4 -765 10 -814 15 -133 55 -275 106 -378 38 -76
62 -110 128 -176 123 -124 247 -179 461 -205 107 -13 252 -3 370 27 324 80
529 348 575 752 6 49 10 398 10 804 l0 717 -190 0 -190 0 0 -732 c-1 -403 -3
-751 -6 -773 -27 -221 -114 -379 -245 -445 -54 -28 -167 -48 -239 -43 -193 14
-318 133 -383 362 -21 74 -21 93 -25 854 l-3 777 -189 0 -190 0 0 -727z"/>
<path d="M2439 1367 c-183 -244 -448 -526 -662 -703 -316 -260 -679 -474
-1042 -613 l-130 -50 958 -1 957 0 0 735 c0 404 -1 735 -2 735 -2 0 -37 -46
-79 -103z"/>
<path d="M0 72 l0 -72 67 0 68 0 -39 32 c-21 17 -51 49 -67 71 l-29 40 0 -71z"/>
</g>
</svg>
