<svg id="mail-com" xmlns="http://www.w3.org/2000/svg" viewBox="0 0 480 125.24"><defs><style>.mail-com-blue{fill:#22366b;}</style></defs><path class="mail-com-blue" d="M480,41.67V82.46H469.42v-41c0-8.16-5.52-14.33-13.89-14.33s-13.89,6.17-13.89,14.33v41H431.05v-41c0-8.16-5.51-14.33-13.89-14.33s-13.89,6.17-13.89,14.33v41H392.69v-65h24.25c8.6,0,15.21,4,19,10.58,3.75-6.39,10.59-10.58,19.19-10.58,15-.22,24.91,10.36,24.91,24.25"/><path class="mail-com-blue" d="M357.41,17.2c-18.08,0-32,15-32,33.51,0,18.3,13.89,33.07,32,33.07s32-15,32-33.07C389.38,32.19,375.71,17.2,357.41,17.2Zm0,56.66C345.72,73.86,336,63.5,336,50.71c0-13,9.7-23.59,21.39-23.59,11.91,0,21.39,10.58,21.39,23.59C379,63.5,369.32,73.86,357.41,73.86Z"/><path class="mail-com-blue" d="M273.18,50.49c0,12.79,9.7,23.15,21.39,23.15a19.72,19.72,0,0,0,18.3-11.24h11.25c-4.19,12.79-15.44,21.16-29.55,21.16-17.42,0-31.75-14.77-31.75-33.07S277.15,17,294.57,17c14.11,0,25.36,8.38,29.55,21.16H312.87a20.19,20.19,0,0,0-18.3-11.24c-11.91.22-21.39,10.8-21.39,23.59"/><polygon class="mail-com-blue" points="253.56 71.88 264.14 71.88 264.14 82.46 253.56 82.46 253.56 71.88 253.56 71.88"/><path class="mail-com-blue" d="M248.27,72.32v9.92c-15,1.77-25.14-7-25.14-23.15V0H233.5V58.65c0,11.24,6.83,14.11,14.77,13.67"/><polygon class="mail-com-blue" points="203.07 18.74 213.65 18.74 213.65 82.24 203.07 82.24 203.07 18.74 203.07 18.74"/><polygon class="mail-com-blue" points="203.07 0 213.65 0 213.65 10.58 203.07 10.58 203.07 0 203.07 0"/><path class="mail-com-blue" d="M162.06,17.2c-17.64,0-32,14.33-32,33.51,0,19,14.11,33.3,31.75,33.3a27.56,27.56,0,0,0,22-11.47v9.92H194V50.71C194,31.75,180.14,17.2,162.06,17.2Zm0,56.88c-11.91,0-21.39-10.14-21.39-23.59,0-13.23,9.7-23.81,21.39-23.81s21.39,10.58,21.39,23.81C183.67,63.72,173.74,74.08,162.06,74.08Z"/><path class="mail-com-blue" d="M109.58,81.8H93.93V46.08c0-3.53-1.11-11.68-11.47-11.68-6.83,0-11.9,4.85-11.9,11.68V81.8H54.9V46.08c0-3.53-1.1-11.68-11.46-11.68-7.06,0-11.91,4.85-11.91,11.68V81.8H15.88V19H43.44c8.37,0,15.21,3.31,19.4,8.6A25.44,25.44,0,0,1,82.24,19c17.2,0,27.34,11.25,27.34,27.34V81.8ZM93.93,0H0V81.58A15.86,15.86,0,0,0,11.69,96.79h0L125,125.24V31.31A31.1,31.1,0,0,0,93.93,0"/></svg>