<?xml version="1.0" encoding="UTF-8"?>
<svg viewBox="0 0 61 25" version="1.1" xmlns="http://www.w3.org/2000/svg" xmlns:xlink="http://www.w3.org/1999/xlink">
    <!-- Generator: sketchtool 54.1 (76490) - https://sketchapp.com -->
    <title>B98BD28D-25EE-43D7-A2B5-7516982DFB80</title>
    <desc>Created with sketchtool.</desc>
    <defs>
        <polygon id="path-1" points="0 1.73611111e-05 25.025641 1.73611111e-05 25.025641 25 0 25"></polygon>
    </defs>
    <g id="Web" stroke="none" stroke-width="1" fill="none" fill-rule="evenodd">
        <g id="Desktop---Sign-In---Active-State" transform="translate(-689.000000, -144.000000)">
            <g id="Logo" transform="translate(688.125000, 144.000000)">
                <g id="Group-6" transform="translate(0.875000, 0.000000)">
                    <path d="M40.5990974,17.5087674 C40.4364308,17.5087674 40.3239892,17.3962674 40.3239892,17.2334201 L40.3239892,9.17144097 L37.5838553,9.17144097 C37.4211886,9.17144097 37.3085732,9.05894097 37.3085732,8.89644097 L37.3085732,7.78428819 C37.3085732,7.62161458 37.4211886,7.50911458 37.5838553,7.50911458 L44.8786558,7.50911458 C45.0414963,7.50911458 45.1539379,7.62161458 45.1539379,7.78428819 L45.1539379,8.89644097 C45.1539379,9.05894097 45.0414963,9.17144097 44.8786558,9.17144097 L42.1385219,9.17144097 L42.1385219,17.2334201 C42.1385219,17.3962674 42.0259066,17.5087674 41.8630661,17.5087674 L40.5990974,17.5087674 Z M48.2435618,16.1587674 C47.4173681,16.1587674 46.7169977,15.546441 46.7169977,14.683941 C46.7169977,13.8087674 47.2176843,13.371441 47.993653,12.9335937 L50.0203823,15.108941 C49.5822598,15.7712674 49.0442085,16.1587674 48.2435618,16.1587674 L48.2435618,16.1587674 Z M48.8068125,8.83394097 C49.457653,8.83394097 49.7828125,9.25876736 49.7828125,9.77161458 C49.7828125,10.3216146 49.4072541,10.633941 48.5188439,11.146441 C48.0056444,10.5966146 47.780935,10.2216146 47.780935,9.79644097 C47.780935,9.24644097 48.1559721,8.83394097 48.8068125,8.83394097 L48.8068125,8.83394097 Z M54.3496444,17.1587674 L52.2349778,14.8710937 L53.6365875,12.471441 C53.7615419,12.2592882 53.6489265,12.121441 53.4485476,12.121441 L52.2349778,12.121441 C52.0349464,12.121441 51.9221573,12.1837674 51.8222285,12.3462674 L51.033747,13.7217882 L49.6323111,12.2091146 C50.5834593,11.6835937 51.4843823,10.9837674 51.4843823,9.73428819 C51.4843823,8.27178819 50.4581573,7.28411458 48.7816131,7.28411458 C47.1424336,7.28411458 46.053992,8.34644097 46.053992,9.89661458 C46.053992,10.508941 46.316935,11.208941 46.8921772,11.8712674 C45.7161459,12.521441 44.9401772,13.2960937 44.9401772,14.746441 C44.9401772,16.633941 46.3793254,17.7337674 48.2061972,17.7337674 C49.6823624,17.7337674 50.5711202,17.0962674 51.2091003,16.246441 L52.1597271,17.2959201 C52.2973681,17.4585937 52.4103311,17.5087674 52.623049,17.5087674 L54.2118296,17.5087674 C54.4122085,17.5087674 54.5126587,17.3337674 54.3496444,17.1587674 L54.3496444,17.1587674 Z M32.4435191,13.483941 L33.8951801,9.35911458 L35.3339806,13.483941 L32.4435191,13.483941 Z M38.5247499,17.1834201 L35.1339493,7.75894097 C35.0710376,7.58394097 34.946257,7.50911458 34.7587385,7.50911458 L33.0816729,7.50911458 C32.8943282,7.50911458 32.7818866,7.58394097 32.7191487,7.75894097 L29.3283481,17.1834201 C29.2656103,17.3460938 29.3783994,17.5087674 29.5408923,17.5087674 L30.7671487,17.5087674 C30.954841,17.5087674 31.0672826,17.4212674 31.1298467,17.2459201 L31.8684507,15.121441 L35.9095704,15.121441 L36.6480006,17.2459201 C36.7103909,17.4212674 36.8231801,17.5087674 37.0108724,17.5087674 L38.3122057,17.5087674 C38.4872114,17.5087674 38.587314,17.3460938 38.5247499,17.1834201 L38.5247499,17.1834201 Z M57.590465,17.5087674 C57.7529578,17.5087674 57.8655732,17.3962674 57.8655732,17.2334201 L57.8655732,9.17144097 L60.6057071,9.17144097 C60.7685476,9.17144097 60.8808154,9.05894097 60.8808154,8.89644097 L60.8808154,7.78428819 C60.8808154,7.62161458 60.7685476,7.50911458 60.6057071,7.50911458 L53.3110803,7.50911458 C53.1480661,7.50911458 53.0357983,7.62161458 53.0357983,7.78428819 L53.0357983,8.89644097 C53.0357983,9.05894097 53.1480661,9.17144097 53.3110803,9.17144097 L56.0515618,9.17144097 L56.0515618,17.2334201 C56.0515618,17.3962674 56.1641772,17.5087674 56.3266701,17.5087674 L57.590465,17.5087674 Z" id="Fill-1" fill="#231F20"></path>
                    <g id="Group-5">
                        <mask id="mask-2" fill="white">
                            <use xlink:href="#path-1"></use>
                        </mask>
                        <g id="Clip-4"></g>
                        <path d="M4.8398547,22.3727604 C6.96147293,24.0140799 9.62392308,25.0000174 12.5128205,25.0000174 C15.6738718,25.0000174 18.5561652,23.8272743 20.7563362,21.9012326 C20.7825783,21.8781424 20.7693704,21.8619965 20.743302,21.8781424 C19.7563533,22.5366493 16.9428803,23.9748438 12.5128205,23.9748438 C8.66321652,23.9748438 6.23016809,23.1165104 4.85636467,22.3500174 C4.83012251,22.3369965 4.82021652,22.356441 4.8398547,22.3727604 M13.3621282,23.0116493 C16.441151,23.0116493 19.8251738,22.1732812 21.8482536,20.5121701 C22.4024672,20.060434 22.9304387,19.4576562 23.4026239,18.6484549 C23.674604,18.1833507 23.9403276,17.6298785 24.1566952,17.0859549 C24.1666011,17.0599132 24.1500912,17.0467187 24.130453,17.076059 C22.2483162,19.8441146 16.7986353,21.5703299 11.1716895,21.5703299 C7.19417664,21.5703299 2.9151396,20.2994965 1.23946439,17.872066 C1.22312821,17.8491493 1.20661823,17.8590451 1.21652422,17.8852604 C2.77732479,21.200191 7.51221083,23.0116493 13.3621282,23.0116493 M9.99774359,17.5118229 C3.59378632,17.5118229 0.573851852,14.5309201 0.0262421652,12.4967187 C0.0198119658,12.4672049 0,12.4738021 0,12.5000174 C0,13.184566 0.0688205128,14.0691146 0.186997151,14.6553993 C0.242609687,14.9402951 0.475487179,15.3890799 0.816461538,15.7461979 C2.36752991,17.3611285 6.23347009,19.6246701 12.9292194,19.6246701 C22.0515869,19.6246701 24.137057,16.5882118 24.5633618,15.5890799 C24.8683618,14.8748438 25.025641,13.5842187 25.025641,12.5000174 C25.025641,12.2378646 25.019037,12.028316 25.0093048,11.822066 C25.0093048,11.7890799 24.9896667,11.7859549 24.9830627,11.8187674 C24.5272137,14.2623437 16.7331168,17.5118229 9.99774359,17.5118229 M1.20661823,7.13769097 C0.839401709,7.86494792 0.432735043,9.09324653 0.311430199,9.72883681 C0.259119658,10.0007118 0.28188604,10.1316146 0.377122507,10.3347396 C1.14440171,11.9628646 5.02685185,14.5670313 14.0835271,14.5670313 C19.6086325,14.5670313 23.9008775,13.2109549 24.596208,10.7343924 C24.7241168,10.2790104 24.730547,9.79758681 24.5666638,9.14897569 C24.3829687,8.42501736 24.0386923,7.57987847 23.7469003,6.98699653 C23.7369943,6.96737847 23.7206581,6.97067708 23.7239601,6.99359375 C23.832057,10.2397743 14.7720798,12.3330035 10.2010769,12.3330035 C5.24964957,12.3330035 1.11815954,10.3609549 1.11815954,7.87154514 C1.11815954,7.63230903 1.16734188,7.39324653 1.22973219,7.14428819 C1.23616239,7.12137153 1.21652422,7.11807292 1.20661823,7.13769097 M20.7759744,3.15123264 C20.8284587,3.23300347 20.8547009,3.32154514 20.8547009,3.43942708 C20.8547009,4.82831597 16.6017322,7.28508681 9.8305584,7.28508681 C4.85636467,7.28508681 3.92502849,5.44098958 3.92502849,4.26824653 C3.92502849,3.84897569 4.08578348,3.41980903 4.43996581,2.98421875 C4.45960399,2.95800347 4.44309402,2.94810764 4.42015385,2.96789931 C3.77417949,3.51477431 3.18068946,4.13057292 2.65932194,4.79567708 C2.41010826,5.11008681 2.25595726,5.38855903 2.25595726,5.55557292 C2.25595726,7.98612847 8.35508832,9.74845486 14.0572849,9.74845486 C20.133302,9.74845486 22.8451083,7.76668403 22.8451083,6.02397569 C22.8451083,5.40157986 22.6024986,5.03803819 21.9827664,4.33369792 C21.5794017,3.87519097 21.1989772,3.50175347 20.7957863,3.13473958 C20.7759744,3.11842014 20.7629402,3.13161458 20.7759744,3.15123264 M18.9134758,1.76234375 C17.037943,0.638732639 14.8607123,1.73611111e-05 12.5128205,1.73611111e-05 C10.1485926,1.73611111e-05 7.9058433,0.661649306 6.02370655,1.81477431 C5.45958689,2.16199653 5.14155271,2.44029514 5.14155271,2.79741319 C5.14155271,3.85227431 7.60744729,4.98560764 11.981547,4.98560764 C16.3099402,4.98560764 19.6677208,3.74411458 19.6677208,2.54845486 C19.6677208,2.26355903 19.4185071,2.06373264 18.9134758,1.76234375" id="Fill-3" fill="#00AFEA" mask="url(#mask-2)"></path>
                    </g>
                </g>
            </g>
        </g>
    </g>
</svg>