<?xml version="1.0" encoding="UTF-8"?>
<svg width="366px" height="59px" viewBox="0 0 366 59" version="1.1" xmlns="http://www.w3.org/2000/svg" xmlns:xlink="http://www.w3.org/1999/xlink">
    <title>ProtonMail</title>
    <g id="Page-1" stroke="none" stroke-width="1" fill="none" fill-rule="evenodd">
        <g id="ProtonMail" fill="#333366" fill-rule="nonzero">
            <path d="M71.5,40.7 L65.9,40.7 L65.9,57 L59.8,57 L59.8,12.4 L71.4,12.4 C82.2,12.4 88.8,16.8 88.8,26.2 C88.8,36.6 81.6,40.7 71.5,40.7 Z M72.1,17.2 L66,17.2 L66,35.8 L72.1,35.8 C78,35.8 82.3,33.9 82.3,26.3 C82.3,19.6 78,17.2 72.1,17.2 Z" id="XMLID_5_"></path>
            <path d="M71.5,40.7 L71.5,39.8 L65,39.8 L65,56.2 L60.6,56.2 L60.6,13.3 L71.4,13.3 C74,13.3 76.4,13.6 78.5,14.1 C80,14.5 81.4,15.1 82.6,15.7 C83.5,16.2 84.2,16.8 84.9,17.5 C85.9,18.5 86.7,19.7 87.2,21.2 C87.7,22.6 88,24.3 88,26.2 C88,28.7 87.6,30.8 86.8,32.5 C86.2,33.8 85.4,34.9 84.5,35.8 C83.8,36.5 83,37.1 82.1,37.6 C80.7,38.4 79.2,38.9 77.4,39.3 C75.6,39.7 73.7,39.8 71.6,39.8 L71.6,40.7 L71.6,41.6 C74.2,41.6 76.6,41.3 78.8,40.8 C80.4,40.4 81.9,39.8 83.3,39 C84.3,38.4 85.2,37.7 86,36.9 C87.2,35.7 88.2,34.2 88.8,32.4 C89.4,30.6 89.8,28.6 89.8,26.3 C89.8,23.9 89.4,21.7 88.5,19.8 C87.9,18.4 87,17.2 85.9,16.1 C85.1,15.3 84.2,14.7 83.2,14.1 C81.7,13.2 79.9,12.6 78,12.2 C76,11.8 73.9,11.6 71.6,11.6 L59.1,11.6 L59.1,57.9 L67,57.9 L67,41.5 L71.8,41.5 L71.8,40.7 L71.5,40.7 Z M72.1,17.2 L72.1,16.3 L65.1,16.3 L65.1,36.6 L72.1,36.6 C73.6,36.6 75.1,36.5 76.4,36.2 C77.4,36 78.3,35.6 79.2,35.1 C79.8,34.7 80.4,34.3 80.9,33.7 C81.7,32.9 82.2,31.8 82.6,30.6 C83,29.4 83.2,27.9 83.2,26.2 C83.2,24.4 82.9,22.9 82.4,21.6 C82,20.6 81.4,19.8 80.7,19.1 C80.2,18.6 79.6,18.1 79,17.8 C78,17.2 77,16.9 75.8,16.6 C74.6,16.4 73.4,16.2 72.1,16.2 L72.1,17.2 L72.1,18.1 C73.5,18.1 74.8,18.2 76,18.5 C76.9,18.7 77.6,19 78.3,19.5 C78.8,19.8 79.2,20.2 79.6,20.6 C80.2,21.2 80.6,22 81,22.9 C81.3,23.8 81.5,25 81.5,26.3 C81.5,28.1 81.2,29.6 80.8,30.7 C80.5,31.5 80,32.2 79.5,32.7 C79.1,33.1 78.7,33.4 78.1,33.7 C77.3,34.1 76.4,34.4 75.4,34.6 C74.4,34.8 73.3,34.9 72.1,34.9 L66.8,34.9 L66.8,18.1 L72.1,18.1 L72.1,17.2 L72.1,17.2 Z" id="XMLID_8_"></path>
            <path d="M96.1,57 L96.1,22.9 L101.3,22.9 L102,29.4 C103.9,24.6 106.9,22.1 110.9,22.1 C112,22.1 113.2,22.2 114.3,22.5 L113.2,28.3 C112.2,28 111.5,27.9 110.2,27.9 C105.9,27.9 103.2,32.2 102,37 L102,57 L96.1,57 Z" id="XMLID_9_"></path>
            <path d="M96.1,57 L97,57 L97,23.8 L100.5,23.8 L101.5,33 L102.8,29.8 C103.3,28.6 103.8,27.6 104.4,26.8 C104.8,26.2 105.3,25.6 105.8,25.1 C106.5,24.4 107.3,23.9 108.2,23.5 C109.1,23.2 110,23 111,23 C111.5,23 112.1,23 112.6,23.1 C113.1,23.2 113.7,23.3 114.1,23.4 L114.3,22.6 L113.5,22.4 L112.4,28.2 L113.2,28.4 L113.4,27.6 C112.9,27.5 112.4,27.4 111.9,27.3 C111.4,27.2 110.9,27.2 110.2,27.2 C109.6,27.2 109,27.3 108.5,27.4 C107.5,27.7 106.6,28.1 105.9,28.7 C104.7,29.6 103.8,30.9 103,32.3 C102.2,33.7 101.7,35.3 101.3,36.9 L101.3,37 L101.3,56.2 L96.2,56.2 L96.2,57 L97.1,57 L96.1,57 L96.1,57.9 L102.9,57.9 L102.9,37 L102,37 L102.8,37.2 C103.1,36.1 103.5,35 103.9,33.9 C104.2,33.1 104.6,32.4 105.1,31.8 C105.8,30.9 106.5,30.1 107.3,29.6 C107.7,29.3 108.2,29.1 108.6,29 C109.1,28.9 109.5,28.8 110.1,28.8 C110.7,28.8 111.1,28.8 111.5,28.9 C111.9,29 112.3,29 112.8,29.2 L113.7,29.4 L115.1,21.9 L114.3,21.7 C113.7,21.6 113.1,21.5 112.5,21.4 C111.9,21.3 111.3,21.3 110.7,21.3 C109.6,21.3 108.6,21.5 107.6,21.8 C106.9,22.1 106.2,22.4 105.5,22.9 C104.5,23.6 103.7,24.4 102.9,25.5 C102.1,26.6 101.5,27.8 100.9,29.2 L101.7,29.5 L102.6,29.4 L101.8,22.1 L95,22.1 L95,57.9 L95.9,57.9 L95.9,57 L96.1,57 Z" id="XMLID_10_"></path>
            <path d="M131.7,21.4 C141.4,21.4 146.8,28.4 146.8,39.2 C146.8,49.7 141.2,57.1 131.6,57.1 C121.9,57.1 116.4,50.1 116.4,39.3 C116.5,28.7 122,21.4 131.7,21.4 Z M131.7,26.2 C126,26.2 122.8,30.3 122.8,39.3 C122.8,48.2 125.9,52.3 131.6,52.3 C137.3,52.3 140.4,48.2 140.4,39.2 C140.5,30.3 137.4,26.2 131.7,26.2 Z" id="XMLID_13_"></path>
            <path d="M131.7,21.4 L131.7,22.3 C134,22.3 136.1,22.7 137.8,23.5 C139.1,24.1 140.3,24.9 141.3,25.8 C142.8,27.2 144,29.1 144.8,31.4 C145.6,33.7 146,36.3 146,39.3 C146,41.9 145.7,44.2 145,46.3 C144.5,47.9 143.9,49.3 143.1,50.5 C141.9,52.3 140.3,53.8 138.4,54.8 C136.5,55.8 134.3,56.3 131.7,56.3 C129.4,56.3 127.3,55.9 125.6,55.1 C124.3,54.5 123.1,53.7 122.1,52.8 C120.6,51.4 119.4,49.5 118.6,47.2 C117.8,44.9 117.4,42.3 117.4,39.3 C117.4,36.7 117.7,34.4 118.4,32.3 C118.9,30.7 119.5,29.3 120.4,28.1 C121.6,26.3 123.2,24.8 125.1,23.8 C127,22.8 129.3,22.3 131.9,22.3 L131.9,21.4 L131.9,20.5 C129.4,20.5 127.1,21 125.1,21.9 C123.6,22.6 122.3,23.5 121.1,24.6 C119.4,26.3 118,28.4 117.1,30.9 C116.2,33.4 115.8,36.2 115.8,39.2 C115.8,42 116.2,44.5 116.8,46.8 C117.3,48.5 118,50 118.9,51.4 C120.3,53.4 122.1,55.1 124.2,56.2 C126.4,57.3 128.9,57.9 131.8,57.9 C134.3,57.9 136.6,57.4 138.6,56.5 C140.1,55.8 141.4,54.9 142.6,53.8 C144.3,52.1 145.7,50 146.5,47.5 C147.4,45 147.8,42.2 147.8,39.2 C147.8,36.4 147.5,33.9 146.8,31.6 C146.3,29.9 145.6,28.4 144.7,27 C143.4,25 141.6,23.3 139.4,22.2 C137.2,21.1 134.7,20.5 131.9,20.5 L131.9,21.4 L131.7,21.4 Z M131.7,26.2 L131.7,25.3 C130.9,25.3 130.2,25.4 129.5,25.5 C128.3,25.8 127.2,26.2 126.2,27 C125.5,27.5 124.9,28.2 124.3,29 C123.5,30.2 122.9,31.6 122.5,33.3 C122.1,35 121.9,37 121.9,39.2 C121.9,41.5 122.1,43.5 122.5,45.2 C122.8,46.5 123.2,47.6 123.7,48.6 C124.1,49.3 124.6,50 125.1,50.6 C125.9,51.4 126.9,52.1 127.9,52.5 C129,52.9 130.2,53.1 131.5,53.1 C132.3,53.1 133,53 133.7,52.9 C134.9,52.6 136,52.2 137,51.4 C137.7,50.9 138.3,50.2 138.9,49.4 C139.7,48.2 140.3,46.8 140.7,45.1 C141.1,43.4 141.3,41.4 141.3,39.2 C141.3,36.9 141.1,34.9 140.7,33.2 C140.4,31.9 140,30.8 139.5,29.8 C139.1,29.1 138.6,28.4 138.1,27.8 C137.3,27 136.3,26.3 135.3,25.9 C134.2,25.5 133,25.3 131.8,25.3 L131.8,26.2 L131.8,27.1 C132.5,27.1 133.1,27.2 133.6,27.3 C134.6,27.5 135.4,27.9 136.1,28.4 C136.6,28.8 137.1,29.3 137.6,30 C138.2,31 138.8,32.2 139.1,33.7 C139.4,35.2 139.6,37.1 139.6,39.2 C139.6,41.4 139.4,43.3 139,44.8 C138.7,46 138.4,47 137.9,47.8 C137.6,48.4 137.2,49 136.8,49.4 C136.2,50.1 135.4,50.6 134.6,50.9 C133.7,51.2 132.8,51.4 131.7,51.4 C131,51.4 130.4,51.3 129.9,51.2 C128.9,51 128.1,50.6 127.3,50.1 C126.7,49.7 126.3,49.2 125.8,48.5 C125.2,47.5 124.6,46.3 124.3,44.8 C123.9,43.3 123.8,41.4 123.8,39.3 C123.8,37.1 124,35.2 124.4,33.7 C124.7,32.5 125,31.5 125.5,30.7 C125.8,30.1 126.2,29.5 126.7,29.1 C127.3,28.4 128.1,27.9 128.9,27.6 C129.8,27.3 130.7,27.1 131.8,27.1 L131.8,26.2 L131.7,26.2 Z" id="XMLID_16_"></path>
            <path d="M173,54.7 C170.9,56.3 168.2,57 165.4,57 C159.1,57 156.2,53 156.2,47.1 L156.2,26.7 L150.8,26.7 L150.8,22.2 L156.2,22.2 L156.2,14.5 L162.2,13.8 L162.2,22.2 L170.8,22.2 L170.1,26.7 L162.2,26.7 L162.2,47.1 C162.2,50.5 163.3,52.1 166.3,52.1 C167.8,52.1 169.1,51.6 170.8,50.6 L173,54.7 Z" id="XMLID_17_"></path>
            <path d="M173,54.7 L172.5,54 C171.6,54.7 170.5,55.2 169.2,55.6 C168,56 166.7,56.1 165.3,56.1 C163.8,56.1 162.6,55.9 161.5,55.4 C160.7,55.1 160.1,54.7 159.5,54.2 C159.1,53.8 158.7,53.4 158.4,52.9 C157.9,52.2 157.6,51.3 157.3,50.3 C157.1,49.3 156.9,48.2 156.9,47.1 L156.9,25.8 L151.5,25.8 L151.5,23 L156.9,23 L156.9,15.2 L161.1,14.7 L161.1,23 L169.6,23 L169.2,25.8 L161.2,25.8 L161.2,47 C161.2,47.9 161.3,48.7 161.4,49.4 C161.5,49.9 161.7,50.4 162,50.9 C162.2,51.2 162.4,51.5 162.7,51.8 C163.1,52.2 163.6,52.5 164.2,52.6 C164.8,52.8 165.4,52.9 166.1,52.9 C166.9,52.9 167.7,52.8 168.6,52.5 C169.4,52.2 170.2,51.8 171.1,51.3 L170.6,50.6 L170,51 L172.3,55.1 L173,54.7 L172.5,54 L173,54.7 L173.8,54.3 L171.1,49.4 L170.3,49.9 C169.5,50.4 168.8,50.7 168.1,50.9 C167.4,51.1 166.8,51.2 166.2,51.2 C165.5,51.2 165,51.1 164.6,51 C164.3,50.9 164.1,50.7 163.9,50.5 C163.8,50.4 163.6,50.2 163.5,50 C163.3,49.7 163.2,49.3 163.1,48.8 C163,48.3 163,47.7 163,47 L163,27.5 L170.8,27.5 L171.8,21.2 L163,21.2 L163,12.7 L155.3,13.6 L155.3,21.2 L149.9,21.2 L149.9,27.5 L155.3,27.5 L155.3,47.1 C155.3,48.6 155.5,50.1 155.9,51.4 C156.2,52.4 156.6,53.3 157.2,54.1 C157.6,54.7 158.1,55.2 158.6,55.7 C159.4,56.4 160.4,57 161.5,57.3 C162.6,57.7 163.9,57.9 165.3,57.9 C166.8,57.9 168.3,57.7 169.7,57.3 C171.1,56.9 172.4,56.3 173.5,55.4 L174.1,54.9 L173.7,54.2 L173,54.7 Z" id="XMLID_18_"></path>
            <path d="M190.9,21.4 C200.6,21.4 206,28.4 206,39.2 C206,49.7 200.4,57.1 190.8,57.1 C181.1,57.1 175.6,50.1 175.6,39.3 C175.6,28.7 181.2,21.4 190.9,21.4 Z M190.9,26.2 C185.2,26.2 182,30.3 182,39.3 C182,48.2 185.1,52.3 190.8,52.3 C196.5,52.3 199.6,48.2 199.6,39.2 C199.6,30.3 196.5,26.2 190.9,26.2 Z" id="XMLID_21_"></path>
            <path d="M190.9,21.4 L190.9,22.3 C193.2,22.3 195.3,22.7 197,23.5 C198.3,24.1 199.5,24.9 200.5,25.8 C202,27.2 203.2,29.1 204,31.4 C204.8,33.7 205.2,36.3 205.2,39.3 C205.2,41.9 204.9,44.2 204.2,46.3 C203.7,47.9 203.1,49.3 202.3,50.5 C201.1,52.3 199.5,53.8 197.6,54.8 C195.7,55.8 193.5,56.3 190.9,56.3 C188.6,56.3 186.5,55.9 184.8,55.1 C183.5,54.5 182.3,53.7 181.3,52.8 C179.8,51.4 178.6,49.5 177.8,47.2 C177,44.9 176.6,42.3 176.6,39.3 C176.6,36.7 176.9,34.4 177.6,32.3 C178.1,30.7 178.7,29.3 179.6,28.1 C180.8,26.3 182.4,24.8 184.3,23.8 C186.2,22.8 188.5,22.3 191.1,22.3 L191.1,21.4 L191.1,20.5 C188.6,20.5 186.3,21 184.3,21.9 C182.8,22.6 181.5,23.5 180.3,24.6 C178.6,26.3 177.2,28.4 176.3,30.9 C175.4,33.4 175,36.2 175,39.2 C175,42 175.4,44.5 176,46.8 C176.5,48.5 177.2,50 178.1,51.4 C179.5,53.4 181.3,55.1 183.4,56.2 C185.6,57.3 188.1,57.9 191,57.9 C193.5,57.9 195.8,57.4 197.8,56.5 C199.3,55.8 200.6,54.9 201.8,53.8 C203.5,52.1 204.9,50 205.7,47.5 C206.6,45 207,42.2 207,39.2 C207,36.4 206.7,33.9 206,31.6 C205.5,29.9 204.8,28.4 203.9,27 C202.6,25 200.8,23.3 198.6,22.2 C196.4,21.1 193.9,20.5 191.1,20.5 L191.1,21.4 L190.9,21.4 Z M190.9,26.2 L190.9,25.3 C190.1,25.3 189.4,25.4 188.7,25.5 C187.5,25.8 186.4,26.2 185.4,27 C184.7,27.5 184.1,28.2 183.5,29 C182.7,30.2 182.1,31.6 181.7,33.3 C181.3,35 181.1,37 181.1,39.2 C181.1,41.5 181.3,43.5 181.7,45.2 C182,46.5 182.4,47.6 182.9,48.6 C183.3,49.3 183.8,50 184.3,50.6 C185.1,51.4 186.1,52.1 187.1,52.5 C188.2,52.9 189.4,53.1 190.7,53.1 C191.5,53.1 192.2,53 192.9,52.9 C194.1,52.6 195.2,52.2 196.2,51.4 C196.9,50.9 197.5,50.2 198.1,49.4 C198.9,48.2 199.5,46.8 199.9,45.1 C200.3,43.4 200.5,41.4 200.5,39.2 C200.5,36.9 200.3,34.9 199.9,33.2 C199.6,31.9 199.2,30.8 198.7,29.8 C198.3,29.1 197.8,28.4 197.3,27.8 C196.5,27 195.5,26.3 194.5,25.9 C193.4,25.5 192.2,25.3 191,25.3 L191,26.2 L191,27.1 C191.7,27.1 192.3,27.2 192.8,27.3 C193.8,27.5 194.6,27.9 195.3,28.4 C195.8,28.8 196.3,29.3 196.8,30 C197.4,31 198,32.2 198.3,33.7 C198.6,35.2 198.8,37.1 198.8,39.2 C198.8,41.4 198.6,43.3 198.2,44.8 C197.9,46 197.6,47 197.1,47.8 C196.8,48.4 196.4,49 196,49.4 C195.4,50.1 194.6,50.6 193.8,50.9 C192.9,51.2 192,51.4 190.9,51.4 C190.2,51.4 189.6,51.3 189.1,51.2 C188.1,51 187.3,50.6 186.5,50.1 C185.9,49.7 185.5,49.2 185,48.5 C184.4,47.5 183.8,46.3 183.5,44.8 C183.1,43.3 183,41.4 183,39.3 C183,37.1 183.2,35.2 183.6,33.7 C183.9,32.5 184.2,31.5 184.7,30.7 C185,30.1 185.4,29.5 185.9,29.1 C186.5,28.4 187.3,27.9 188.1,27.6 C189,27.3 189.9,27.1 191,27.1 L191,26.2 L190.9,26.2 Z" id="XMLID_24_"></path>
            <path d="M220.8,57 L214.8,57 L214.8,22.9 L219.9,22.9 L220.4,27.6 C223.2,24.1 227.3,22.2 231.3,22.2 C237.9,22.2 240.6,26 240.6,32.3 L240.6,57 L234.6,57 L234.6,32.6 C234.6,28.5 233.2,26.8 229.3,26.8 C225.6,26.8 222.6,29.6 220.8,32.3 L220.8,57 Z" id="XMLID_25_"></path>
            <path d="M220.8,57 L220.8,56.1 L215.7,56.1 L215.7,23.7 L219.2,23.7 L219.8,29.7 L221.1,28 C222.4,26.4 224,25.1 225.8,24.2 C227.6,23.3 229.4,22.9 231.3,22.9 C232.9,22.9 234.2,23.1 235.2,23.5 C236,23.8 236.7,24.2 237.2,24.7 C237.6,25.1 238,25.5 238.3,26 C238.8,26.7 239.1,27.6 239.3,28.6 C239.5,29.6 239.6,30.8 239.6,32.1 L239.6,56 L235.4,56 L235.4,32.5 C235.4,31.4 235.3,30.5 235.1,29.7 C234.9,29.1 234.7,28.5 234.4,28 C234.1,27.6 233.8,27.3 233.5,27 C233.2,26.8 232.9,26.6 232.6,26.5 C232.1,26.3 231.6,26.1 231.1,26 C230.5,25.9 229.9,25.9 229.3,25.9 C228.3,25.9 227.3,26.1 226.4,26.4 C225,26.9 223.8,27.7 222.8,28.7 C221.8,29.6 220.9,30.7 220.2,31.8 L220,32 L220,57 L220.8,57 L220.8,56.1 L220.8,57 L221.7,57 L221.7,32.3 L220.8,32.3 L221.5,32.8 C222.4,31.5 223.5,30.2 224.8,29.3 C225.5,28.8 226.2,28.4 226.9,28.1 C227.6,27.8 228.4,27.7 229.2,27.7 C230.1,27.7 230.8,27.8 231.4,28 C231.8,28.1 232.1,28.3 232.4,28.6 C232.6,28.8 232.8,29 232.9,29.2 C233.1,29.6 233.3,30 233.4,30.6 C233.5,31.2 233.6,31.9 233.6,32.7 L233.6,58 L241.3,58 L241.3,32.4 C241.3,30.8 241.1,29.3 240.7,27.9 C240.4,26.9 240,26 239.5,25.2 C239.1,24.6 238.6,24.1 238.1,23.6 C237.3,22.9 236.3,22.4 235.1,22 C233.9,21.6 232.6,21.5 231.2,21.5 C229.1,21.5 226.9,22 224.9,23 C222.9,24 221.1,25.4 219.6,27.3 L220.3,27.8 L221.2,27.7 L220.7,22.3 L214,22.3 L214,58.1 L221.7,58.1 L221.7,57 L220.8,57 Z" id="XMLID_26_"></path>
            <path d="M287,57 L285.1,34.2 C284.6,27.9 284.4,20.8 284.4,19.4 L284.1,19.4 L274.1,52.3 L268.2,52.3 L257.8,19.4 L257.5,19.4 C257.5,20.9 257.4,28.5 256.9,34.2 L255.2,57 L249.4,57 L253.1,12.4 L261.4,12.4 L271.2,44.9 L271.5,44.9 L280.9,12.4 L289.2,12.4 L293,57 L287,57 Z" id="XMLID_27_"></path>
            <path d="M287,57 L287.9,56.9 L286,34.1 L286,34.1 C285.7,31 285.6,27.6 285.5,24.9 C285.4,23.5 285.4,22.3 285.4,21.4 C285.4,20.9 285.4,20.5 285.4,20.2 C285.4,19.9 285.4,19.6 285.4,19.4 L285.4,18.5 L283.6,18.5 L273.6,51.4 L269,51.4 L258.6,18.5 L256.8,18.5 L256.8,19.4 C256.8,19.8 256.8,20.5 256.8,21.5 C256.7,24.5 256.6,29.8 256.2,34.1 L256.2,34.1 L254.5,56.1 L250.4,56.1 L253.9,13.2 L260.7,13.2 L270.5,45.7 L272,45.7 L281.4,13.2 L288.3,13.2 L291.8,56.1 L286.8,56.1 L286.8,57 L287.7,56.9 L287,57 L287,57.9 L293.9,57.9 L290.1,11.6 L280.3,11.6 L270.7,44.8 L271.5,45 L271.5,44.1 L271.2,44.1 L271.2,45 L272,44.8 L262,11.6 L252.3,11.6 L248.5,57.9 L256.1,57.9 L257.9,34.3 L257.9,34.3 C258.1,31.4 258.3,28.1 258.4,25.2 C258.4,23.8 258.5,22.5 258.5,21.5 C258.5,20.5 258.5,19.7 258.5,19.4 L257.6,19.4 L257.6,20.3 L257.9,20.3 L257.9,19.4 L257.1,19.7 L267.6,53.2 L274.8,53.2 L285,19.7 L284.2,19.5 L284.2,20.4 L284.5,20.4 L284.5,19.5 L283.6,19.5 C283.6,19.7 283.6,20 283.6,20.3 C283.6,22.7 283.8,28.9 284.3,34.4 L284.3,34.4 L286.3,58 L287.1,58 L287.1,57 L287,57 Z" id="XMLID_28_"></path>
            <path d="M325.1,48.6 C325.1,51.3 325.9,52.3 327.6,52.9 L326.2,57 C323.2,56.6 321,55.3 319.9,52.2 C317.5,55.4 313.9,57 309.7,57 C302.8,57 298.6,52.8 298.6,46.5 C298.6,39.4 304.3,35.5 314.6,35.5 L319,35.5 L319,32.8 C319,28 316.6,26.2 311.6,26.2 C309.3,26.2 306.2,26.7 302.7,27.9 L301.1,23.5 C305.3,21.9 309.1,21.3 312.5,21.3 C321.2,21.3 324.9,25.5 324.9,32.4 L324.9,48.6 L325.1,48.6 Z M319.2,47.8 L319.2,39.4 L315.1,39.4 C307.8,39.4 305.3,42.1 305.3,46.2 C305.3,50.4 307.2,52.5 311.4,52.5 C314.7,52.6 317.2,50.8 319.2,47.8 Z" id="XMLID_31_"></path>
            <path d="M325.1,48.6 L324.2,48.6 C324.2,49.3 324.3,49.9 324.4,50.5 C324.5,50.9 324.6,51.3 324.8,51.7 C324.9,52 325.1,52.2 325.3,52.4 C325.6,52.7 325.9,53 326.2,53.2 C326.6,53.4 326.9,53.6 327.3,53.7 L327.6,52.9 L326.8,52.6 L325.4,56.7 L326.2,57 L326.3,56.1 C325.6,56 324.9,55.9 324.4,55.7 C324,55.5 323.6,55.4 323.2,55.1 C322.7,54.8 322.2,54.4 321.8,53.8 C321.4,53.3 321.1,52.6 320.8,51.9 L320.3,50.3 L319.3,51.6 C318.2,53.1 316.8,54.2 315.2,54.9 C313.6,55.6 311.8,56 309.8,56 C308.2,56 306.7,55.8 305.5,55.3 C304.6,55 303.7,54.5 303,53.9 C301.9,53.1 301.1,52 300.5,50.7 C299.9,49.4 299.6,47.9 299.6,46.3 C299.6,45.5 299.7,44.7 299.8,44 C300.1,42.7 300.6,41.7 301.3,40.7 C301.9,40 302.6,39.3 303.4,38.8 C304.7,38 306.2,37.3 308.1,36.9 C310,36.5 312.2,36.2 314.7,36.2 L320,36.2 L320,32.7 C320,31.4 319.8,30.3 319.5,29.4 C319.2,28.7 318.9,28 318.4,27.5 C318,27.1 317.6,26.7 317.2,26.5 C316.5,26.1 315.7,25.8 314.8,25.6 C313.9,25.4 312.9,25.3 311.8,25.3 C310.6,25.3 309.2,25.4 307.6,25.7 C306,26 304.3,26.4 302.5,27.1 L302.8,27.9 L303.6,27.6 L302,23.2 L301.2,23.5 L301.5,24.3 C305.6,22.8 309.3,22.2 312.6,22.2 C314.7,22.2 316.5,22.5 317.9,22.9 C319,23.3 319.9,23.7 320.7,24.3 C321.3,24.7 321.8,25.2 322.2,25.8 C322.8,26.6 323.3,27.6 323.6,28.7 C323.9,29.8 324.1,31.1 324.1,32.5 L324.1,48.5 L325.1,48.5 L326,48.5 L326,32.5 C326,30.7 325.8,29 325.2,27.6 C324.8,26.5 324.2,25.5 323.5,24.6 C323,23.9 322.3,23.4 321.6,22.8 C320.5,22 319.2,21.5 317.7,21.1 C316.2,20.7 314.5,20.5 312.6,20.5 C309.1,20.5 305.2,21.2 300.9,22.8 L300.1,23.1 L302.2,29.1 L303,28.8 C304.7,28.2 306.3,27.8 307.8,27.5 C309.3,27.2 310.6,27.1 311.6,27.1 C312.8,27.1 313.8,27.2 314.6,27.4 C315.2,27.6 315.7,27.8 316.2,28.1 C316.5,28.3 316.8,28.6 317,28.8 C317.3,29.2 317.6,29.7 317.8,30.4 C318,31.1 318.1,31.9 318.1,32.8 L318.1,34.6 L314.6,34.6 C312,34.6 309.6,34.9 307.5,35.4 C305.9,35.8 304.6,36.3 303.3,36.9 C302.4,37.4 301.6,38 300.9,38.6 C299.8,39.6 299,40.7 298.5,42.1 C298,43.4 297.7,44.9 297.7,46.5 C297.7,48.2 298,49.7 298.5,51.1 C298.9,52.1 299.5,53.1 300.2,53.9 C301.2,55.2 302.6,56.1 304.2,56.8 C305.8,57.5 307.6,57.8 309.7,57.8 C311.9,57.8 313.9,57.4 315.8,56.5 C317.6,55.7 319.3,54.4 320.6,52.6 L319.9,52.1 L319.1,52.4 C319.4,53.2 319.8,54 320.2,54.6 C320.5,55.1 320.9,55.5 321.4,55.9 C322,56.4 322.8,56.9 323.6,57.2 C324.4,57.5 325.3,57.7 326.2,57.8 L326.9,57.9 L328.8,52.3 L328,52 C327.6,51.9 327.3,51.7 327.1,51.5 C326.9,51.4 326.8,51.2 326.7,51.1 C326.6,51 326.5,50.9 326.5,50.7 C326.4,50.5 326.3,50.2 326.2,49.8 C326.1,49.4 326.1,49 326.1,48.4 L325.1,48.4 L325.1,48.6 Z M319.2,47.8 L320.1,47.8 L320.1,38.5 L315.2,38.5 C313.3,38.5 311.7,38.7 310.4,39 C309.4,39.3 308.5,39.6 307.8,40 C307.2,40.3 306.7,40.7 306.3,41.2 C305.7,41.9 305.2,42.6 304.9,43.5 C304.6,44.3 304.5,45.2 304.5,46.2 C304.5,47.3 304.6,48.3 304.9,49.2 C305.1,49.9 305.4,50.5 305.8,51 C306.1,51.4 306.4,51.8 306.8,52.1 C307.4,52.6 308.1,52.9 308.9,53.1 C309.7,53.3 310.6,53.4 311.5,53.4 C312.4,53.4 313.2,53.3 314,53 C315.2,52.7 316.3,52 317.3,51.2 C318.3,50.4 319.2,49.4 319.9,48.2 L320,48 L320,47.7 L319.2,47.7 L318.5,47.2 C318,47.9 317.5,48.5 317,49.1 C316.2,49.9 315.4,50.5 314.4,50.9 C313.5,51.3 312.5,51.5 311.4,51.5 C310.4,51.5 309.6,51.4 308.9,51.1 C308.4,50.9 308,50.7 307.7,50.4 C307.4,50.2 307.2,50 307,49.7 C306.7,49.3 306.5,48.8 306.3,48.2 C306.1,47.6 306.1,46.9 306.1,46 C306.1,45.1 306.2,44.2 306.5,43.5 C306.7,43 307,42.5 307.4,42.1 C307.7,41.8 308.1,41.5 308.5,41.3 C309.2,40.9 310,40.6 311.1,40.4 C312.2,40.2 313.4,40.1 314.9,40.1 L318.1,40.1 L318.1,47.6 L319.2,47.6 L318.5,47.1 L319.2,47.8 Z" id="XMLID_34_"></path>
            <path d="M339,15.2 C336.5,15.2 334.9,13.5 334.9,11.1 C334.9,8.8 336.6,7.1 339,7.1 C341.5,7.1 343.2,8.8 343.2,11.1 C343.2,13.4 341.4,15.2 339,15.2 Z M336,57 L336,22.9 L342,22.9 L342,57 L336,57 Z" id="XMLID_37_"></path>
            <path d="M339,15.2 L339,14.3 C338.5,14.3 338,14.2 337.6,14.1 C337,13.9 336.5,13.5 336.2,13 C335.9,12.5 335.7,11.9 335.7,11.2 C335.7,10.7 335.8,10.3 335.9,9.9 C336.1,9.3 336.5,8.9 337,8.5 C337.5,8.2 338.2,8 338.9,8 C339.4,8 339.9,8.1 340.3,8.2 C340.9,8.4 341.4,8.8 341.7,9.3 C342,9.8 342.2,10.4 342.2,11.1 C342.2,11.6 342.1,12 342,12.4 C341.8,13 341.4,13.4 340.8,13.8 C340.3,14.1 339.6,14.3 338.9,14.3 L338.9,15.2 L338.9,16.1 C339.6,16.1 340.3,16 340.9,15.7 C341.8,15.3 342.6,14.7 343.1,13.9 C343.6,13.1 343.9,12.1 343.9,11.1 C343.9,10.4 343.8,9.8 343.5,9.2 C343.1,8.3 342.5,7.6 341.7,7 C340.9,6.5 339.9,6.2 338.8,6.2 C338.1,6.2 337.4,6.3 336.8,6.6 C335.9,7 335.1,7.6 334.6,8.4 C334.1,9.2 333.8,10.1 333.8,11.1 C333.8,11.8 333.9,12.4 334.2,13 C334.6,13.9 335.2,14.7 336,15.2 C336.8,15.7 337.8,16 338.9,16 L338.9,15.2 L339,15.2 Z M336,57 L336.9,57 L336.9,23.8 L341.1,23.8 L341.1,56.2 L336,56.2 L336,57 L336.9,57 L336,57 L336,57.9 L342.8,57.9 L342.8,22.1 L335.1,22.1 L335.1,57.9 L336,57.9 L336,57 Z" id="XMLID_40_"></path>
            <path d="M364.4,55.9 C362.9,56.6 361.3,57.1 359.5,57.1 C355.4,57.1 352.5,54.8 352.5,48.9 L352.5,8.5 L358.5,7.8 L358.5,49.5 C358.5,51.4 359.1,52.2 360.6,52.2 C361.4,52.2 362.2,52.1 362.8,51.8 L364.4,55.9 Z" id="XMLID_41_"></path>
            <path d="M364.4,55.9 L364,55.1 C363.3,55.4 362.6,55.7 361.8,55.9 C361.1,56.1 360.3,56.2 359.5,56.2 C358.6,56.2 357.7,56.1 357,55.8 C356.4,55.6 356,55.3 355.5,55 C355.2,54.7 354.9,54.4 354.6,54 C354.2,53.4 353.9,52.8 353.7,51.9 C353.5,51.1 353.4,50.1 353.4,48.9 L353.4,9.2 L357.6,8.7 L357.6,49.4 C357.6,49.9 357.6,50.4 357.7,50.8 C357.8,51.1 357.9,51.4 358.1,51.7 C358.2,51.9 358.4,52.1 358.6,52.3 C358.7,52.4 358.9,52.5 359,52.6 C359.2,52.7 359.5,52.8 359.8,52.9 C360.1,53 360.3,53 360.6,53 C361.1,53 361.5,53 361.9,52.9 C362.3,52.8 362.7,52.7 363.1,52.6 L362.8,51.8 L362,52.1 L363.6,56.2 L364.4,55.9 L364,55.1 L364.4,55.9 L365.2,55.6 L363.3,50.6 L362.5,50.9 C362.2,51 362,51.1 361.6,51.1 C361.3,51.2 361,51.2 360.6,51.2 C360.3,51.2 360.1,51.2 359.9,51.1 C359.8,51.1 359.7,51 359.7,51 C359.7,51 359.6,50.9 359.6,50.8 C359.5,50.7 359.5,50.5 359.4,50.3 C359.4,50.1 359.3,49.8 359.3,49.4 L359.3,6.8 L351.6,7.7 L351.6,48.9 C351.6,50.4 351.8,51.8 352.2,52.9 C352.5,53.8 352.9,54.5 353.3,55.2 C353.7,55.7 354.1,56.1 354.5,56.5 C355.2,57 356,57.4 356.8,57.7 C357.6,57.9 358.5,58.1 359.5,58.1 C360.4,58.1 361.4,58 362.2,57.8 C363.1,57.6 363.9,57.3 364.7,56.9 L365.4,56.6 L365.1,55.9 L364.4,55.9 Z" id="XMLID_42_"></path>
            <path d="M21.1,2.81510926e-14 C21.1,2.81510926e-14 4,-0.6 0.5,18.4 L0.5,31.3 C0.5,31.3 0.6,32.7 4.5,35.5 C8.4,38.3 18.4,46.2 21.1,46.2 C23.8,46.2 33.8,38.3 37.7,35.5 C41.6,32.7 41.7,31.3 41.7,31.3 L41.7,18.4 C38.2,-0.5 21.1,2.81510926e-14 21.1,2.81510926e-14 Z M32.8,25.4 L21.1,25.4 L9.4,25.4 L9.4,18.4 C11.8,9 21.1,8.9 21.1,8.9 C21.1,8.9 30.4,9 32.8,18.4 L32.8,25.4 L32.8,25.4 Z" id="XMLID_45_"></path>
            <path d="M21.1,49.1 C21.1,49.1 18.5,48.8 16.4,47.4 C14.3,46 0.5,36.1 0.5,36.1 L0.5,55.6 C0.5,55.6 0.6,57.9 3.1,57.9 C5.6,57.9 21.1,57.9 21.1,57.9 C21.1,57.9 36.6,57.9 39.1,57.9 C41.6,57.9 41.7,55.6 41.7,55.6 L41.7,36.1 C41.7,36.1 27.9,46 25.8,47.4 C23.7,48.8 21.1,49.1 21.1,49.1 Z" id="XMLID_46_"></path>
        </g>
    </g>
</svg>