<?xml version="1.0" encoding="UTF-8" standalone="no"?>
<svg xmlns="http://www.w3.org/2000/svg" version="1.1" viewBox="0 0 427.76463 74.70276" height="74.7" width="427.76">
 <defs id="defs6685">
  <clipPath id="clipPath3382">
   <path id="path3384" d="m 40.98,792 123.207,0 0,-36.36 -123.207,0 0,36.36 z"/>
  </clipPath>
 </defs>
 <metadata id="metadata6688"/>
 <g transform="translate(-131.35409,-11.431586)" id="layer1">
  <path id="path3392" d="m 526.34528,45.072566 c -1.38605,-0.74003 -2.43681,-1.29608 -3.74516,-1.99524 -4.40751,-2.34685 -7.82967,-4.19899 -7.82967,-8.16083 0,-4.44839 4.21944,-6.3496 8.92951,-6.3496 6.31279,0 11.19457,2.10155 12.17584,2.46952 l 0,-9.3956 c -0.78501,-0.24138 -5.11892,-1.68859 -13.13258,-1.68859 -12.28623,0 -18.8975,7.25318 -18.8975,15.52441 0,8.25078 6.70122,12.50292 12.27806,15.47125 1.27564,0.67871 2.81705,1.50052 4.03544,2.14651 4.62012,2.46134 8.01365,4.39524 8.01365,8.66782 0,4.86135 -4.69779,7.15914 -9.38741,7.15914 -8.00956,0 -12.87091,-2.92335 -13.6968,-3.37718 l -2.71074,8.30803 c 0.79319,0.47428 7.17957,3.73697 16.59152,3.73697 11.51758,0 20.12408,-6.74618 20.12408,-16.72644 0,-7.08555 -4.82046,-11.57074 -12.74824,-15.79017 m -55.80527,1.56184 -6.68894,0 0,-17.59323 6.68894,0 c 8.82729,0 10.37686,5.71996 10.37686,8.7128 0,3.49984 -1.77445,8.88043 -10.37686,8.88043 m 10.34825,6.95062 0,-0.35571 c 2.29779,-0.86269 10.27464,-4.89405 10.27464,-15.41809 0,-7.50667 -4.8409,-17.1394 -20.36122,-17.1394 l -16.93497,0 0,56.2223 9.98436,0 0,-21.89444 3.58569,0 c 5.17617,0 6.48862,1.88483 9.7186,7.68656 l 8.03001,14.20788 11.5094,0 -9.29748,-16.39937 c -3.05825,-5.47873 -5.4092,-6.59082 -6.50903,-6.90973 m -232.1342,-6.95062 -6.68482,0 0,-17.59323 6.68482,0 c 8.83547,0 10.37278,5.71996 10.37278,8.7128 0,3.49984 -1.77037,8.88043 -10.37278,8.88043 m 10.35233,6.95062 0,-0.35571 c 2.30189,-0.86269 10.27464,-4.89405 10.27464,-15.41809 0,-7.50667 -4.84498,-17.1394 -20.3653,-17.1394 l -16.93905,0 0,56.2223 9.99256,0 0,-21.89444 3.5898,0 c 5.16795,0 6.48039,1.88483 9.71037,7.68656 l 8.0341,14.20788 11.50531,0 -9.29746,-16.39937 c -3.05011,-5.47873 -5.40513,-6.59082 -6.50497,-6.90973 m 110.73148,1.09166 8.57378,0 0,12.59696 c -2.17922,1.02625 -4.48109,1.70496 -8.16083,1.70496 -11.88555,0 -17.7854,-7.94007 -17.7854,-20.06684 0,-11.95506 5.9857,-20.32442 18.14111,-20.32442 4.46065,0 8.98264,1.43509 12.73598,3.79422 l 2.81295,-8.62286 c -4.42387,-2.31005 -10.291,-3.7983 -16.30941,-3.7983 -17.16803,0 -28.09276,12.55608 -28.09276,29.63824 0,16.13361 9.66544,28.0028 27.74113,28.0028 7.69884,0 14.02389,-1.95843 19.0406,-4.52199 l 0,-26.52682 -16.04365,0 -2.6535,8.12405 z m 45.13812,-2.26918 21.55098,0 0,-8.36117 -21.55098,0 0,-15.01334 21.64094,0 2.73117,-8.36117 -34.60997,0 0,56.2223 34.69175,0 0,-8.36119 -24.45389,0 0,-16.12543 z m -109.34545,16.5711 c -10.20923,0 -15.53258,-7.429 -15.53258,-20.15271 0,-12.80957 5.32335,-20.23855 15.53258,-20.23855 10.45863,0 15.52849,7.76834 15.52849,20.23855 0,12.72371 -5.40104,20.15271 -15.52849,20.15271 m 0,-49.0182 c -16.32168,0 -26.2447,11.78742 -26.2447,28.86549 0,17.2498 10.01297,28.77963 26.2447,28.77963 16.06818,0 26.24062,-11.52983 26.24062,-28.77963 0,-16.9922 -9.91893,-28.86549 -26.24062,-28.86549 m 252.13969,50.69042 -1.84396,4.79593 -0.0261,0 -1.8644,-4.79593 -1.3615,0 0,6.2433 0.84634,0 0,-5.22114 0.0229,0 2.05247,5.22114 0.5724,0 2.05657,-5.22114 0.0229,0 0,5.22114 0.87087,0 0,-6.2433 -1.35333,0 z m -10.98196,0.76867 2.00749,0 0,5.47463 0.86678,0 0,-5.47463 2.00751,0 0,-0.76867 -4.88178,0 0,0.76867 z M 191.49326,46.205106 c 2.40819,-3.14821 4.28076,-8.34891 4.28076,-13.70088 0,-10.90429 -10.20513,-21.07264 -27.11557,-21.07264 -10.38095,0 -18.62356,4.17446 -24.19632,8.93359 2.73118,-0.89132 6.61126,-1.7949 11.46443,-1.7949 12.9772,0 28.19496,10.23785 35.5667,27.63483 m -45.57559,5.15982 c -2.40818,3.14413 -4.28076,8.34891 -4.28076,13.69679 0,10.9043 10.20514,21.07263 27.11558,21.07263 10.38094,0 18.62356,-4.17446 24.19223,-8.92949 -2.7271,0.89132 -6.60718,1.7908 -11.46034,1.7908 -12.97721,0 -28.19497,-10.23376 -35.56671,-27.63073 m 20.20585,-25.36567 c -3.14413,-2.41226 -8.34892,-4.28485 -13.6968,-4.28485 -10.9002,0 -21.07263,10.20515 -21.07263,27.11967 0,10.38095 4.17446,18.61947 8.9295,24.18814 -0.89132,-2.723 -1.79081,-6.60717 -1.79081,-11.46034 0,-12.97312 10.23376,-28.19087 27.63074,-35.56262 m 32.79464,10.0048 c 0,12.97721 -10.23376,28.19497 -27.63483,35.5667 3.14413,2.4082 8.353,4.28485 13.70089,4.28485 10.90429,0 21.07263,-10.20513 21.07263,-27.11557 0,-10.38503 -4.17855,-18.62764 -8.9295,-24.19631 0.88723,2.723 1.79081,6.60717 1.79081,11.46033" fill="#ee2722"/>
 </g>
</svg>
