<?xml version="1.0" encoding="UTF-8" standalone="no"?>
<svg
   xmlns:dc="http://purl.org/dc/elements/1.1/"
   xmlns:cc="http://creativecommons.org/ns#"
   xmlns:rdf="http://www.w3.org/1999/02/22-rdf-syntax-ns#"
   xmlns:svg="http://www.w3.org/2000/svg"
   xmlns="http://www.w3.org/2000/svg"
   viewBox="0 0 922.71332 334.51334"
   height="334.51334"
   width="922.71332"
   xml:space="preserve"
   id="svg2"
   version="1.1"><metadata
     id="metadata8"><rdf:RDF><cc:Work
         rdf:about=""><dc:format>image/svg+xml</dc:format><dc:type
           rdf:resource="http://purl.org/dc/dcmitype/StillImage" /></cc:Work></rdf:RDF></metadata><defs
     id="defs6"><clipPath
       id="clipPath18"
       clipPathUnits="userSpaceOnUse"><path
         id="path16"
         d="M 0,250.885 H 692.035 V 0 H 0 Z" /></clipPath></defs><g
     transform="matrix(1.3333333,0,0,-1.3333333,0,334.51333)"
     id="g10"><g
       id="g12"><g
         clip-path="url(#clipPath18)"
         id="g14"><g
           transform="translate(215.7721,176.6676)"
           id="g20"><path
             id="path22"
             style="fill:#0488c1;fill-opacity:1;fill-rule:nonzero;stroke:none"
             d="m 0,0 c -8.876,0 -22.789,-2.56 -33.254,-9.516 v 45.113 c 0,4.407 -2.405,6.492 -6.358,6.492 h -23.532 c -3.953,0 -6.461,-2.085 -6.461,-6.492 v -152.358 c 0,-4.325 2.281,-6.441 6.461,-6.441 h 23.449 c 4.283,0 6.441,2.25 6.441,6.441 v 73.867 c 0,8.68 10.847,14.16 22.479,14.16 7.297,0 12.674,-1.63 15.925,-4.83 2.859,-2.807 4.221,-7.028 4.211,-12.55 v -70.647 c 0,-4.325 2.281,-6.441 6.451,-6.441 h 23.449 c 4.283,0 6.451,2.25 6.451,6.441 V -46.31 C 45.774,-13.892 26.112,0 0,0" /></g><g
           transform="translate(81.2371,152.4597)"
           id="g24"><path
             id="path26"
             style="fill:#0488c1;fill-opacity:1;fill-rule:nonzero;stroke:none"
             d="m 0,0 c -26.608,8.494 -30.819,13.655 -30.819,22.407 0,8.711 8.474,13.242 22.882,13.242 13.551,0 31.954,-4.397 38.146,-5.749 4.769,-1.043 7.039,1.589 7.039,5.212 v 16.111 c 0.011,3.375 -1.156,6.461 -6.213,8.154 -11.332,3.777 -25.286,6.151 -43.204,5.903 -27.206,-0.371 -55.743,-12.086 -55.743,-45.588 0,-24.925 15.213,-39.106 48.271,-49.344 23.893,-7.4 31.716,-14.429 31.696,-24.058 -0.021,-10.125 -8.876,-15.771 -28.507,-15.771 -20.487,0 -39.643,7.947 -47.373,9.846 -4.82,1.198 -7.235,-1.052 -7.235,-4.861 V -82.95 c 0,-5.098 3.674,-7.214 7.338,-8.638 0.888,-0.341 21.458,-8.722 47.322,-8.722 h 0.32 0.01 c 43.72,0.073 64.929,18.207 65.053,48.447 C 49.117,-18.836 27.784,-8.845 0,0" /></g><g
           transform="translate(613.2756,238.4986)"
           id="g28"><path
             id="path30"
             style="fill:#0488c1;fill-opacity:1;fill-rule:nonzero;stroke:none"
             d="m 0,0 c -1.641,0.867 -4.005,2.002 -6.09,2.002 -3.478,0 -5.377,-2.147 -5.377,-6.068 v -24.172 c 0,-3.107 1.043,-4.944 3.065,-6.43 0,0 0.61,-0.454 1.796,-1.228 25.978,-17.267 41.501,-44.05 41.501,-77.15 0,-33.12 -15.523,-59.913 -41.501,-77.159 -1.186,-0.795 -1.796,-1.239 -1.796,-1.239 -2.022,-1.486 -3.065,-3.334 -3.065,-6.42 v -24.182 c 0,-3.922 1.899,-6.068 5.377,-6.068 2.085,0 4.449,1.125 6.09,2.002 39.994,21.075 68.469,62.37 68.583,113.066 C 68.469,-62.37 39.994,-21.075 0,0" /></g><g
           transform="translate(353.1507,79.9651)"
           id="g32"><path
             id="path34"
             style="fill:#0488c1;fill-opacity:1;fill-rule:nonzero;stroke:none"
             d="m 0,0 c -1.971,-0.578 -11.136,-3.045 -21.076,-3.045 -13.891,0 -20.724,5.625 -20.724,14.006 0,8.473 5.976,15.161 23.738,15.161 7.359,0 14.057,-1.31 18.062,-2.889 z m -21.22,96.749 c -12.571,0 -26.164,-2.085 -35.927,-5.057 -3.695,-1.156 -6.131,-3.489 -6.131,-8.03 V 69.295 c -0.052,-3.344 2.147,-6.089 8.143,-4.727 7.029,1.62 19.682,4.273 31.448,4.273 C -8.236,68.841 0,61.637 0,50.552 v -4.139 c -7.596,1.786 -15.038,2.942 -24.027,2.942 -32.16,0 -52.163,-14.511 -52.163,-40.727 0,-22.499 17.04,-38.662 51.141,-38.662 h 0.351 c 2.951,0.021 3.984,0.031 6.461,0.031 18.402,0 39.684,5.491 45.691,7.142 2.343,0.64 6.698,1.858 6.698,7.07 V 44.401 C 34.224,64.197 30.674,75.168 22.097,83.559 13.84,91.64 -0.392,96.749 -21.22,96.749" /></g><g
           transform="translate(569.8895,173.014)"
           id="g36"><path
             id="path38"
             style="fill:#0488c1;fill-opacity:1;fill-rule:nonzero;stroke:none"
             d="m 0,0 h -21.086 c -4.293,0 -6.471,-2.271 -6.471,-6.471 v -69.904 c 0,-7.803 -4.552,-15.688 -17.515,-15.688 -8.587,0 -16.627,3.922 -16.627,11.59 V -6.471 C -61.699,-2.136 -63.97,0 -68.15,0 h -21.086 c -4.283,0 -6.45,-2.271 -6.45,-6.471 v -74.002 c 0,-8.257 -8.36,-11.59 -17.35,-11.59 -12.86,0 -16.72,7.575 -16.72,15.688 v 69.904 c 0,4.335 -2.25,6.471 -6.44,6.471 h -21.086 c -4.283,0 -6.461,-2.271 -6.461,-6.471 v -72.598 c 0,-27.423 19.817,-42.492 48.54,-42.492 18.175,0 30.261,6.616 36.485,11.188 6.337,-4.603 17.721,-11.322 35.029,-11.322 28.744,0 50.15,11.9 50.15,42.626 V -6.471 C 6.461,-2.136 4.18,0 0,0" /></g></g></g></g></svg>