<?xml version="1.0" ?><svg data-name="Layer 1" id="Layer_1" viewBox="0 0 508.33 508.36" xmlns="http://www.w3.org/2000/svg"><defs><style>.cls-1{fill:#4d00ae;fill-rule:evenodd;}.cls-2{fill:#fff;}</style></defs><title/><path class="cls-1" d="M485,29.72c11.45,15.13,16.61,40.21,19.15,70.7,3.36,45.5,4.71,100.1,6,156.52-1.67,57.47-2.35,115.43-6,156.52-2.88,31.54-9,52.66-19.22,65.47-13,12.79-37.94,23.59-73.5,26.15-43.25,3.69-96.61,3.65-155.48,5.1-65.44-1.12-109.82-.64-156.38-5.08-36.32-2.52-60.08-13.19-74.7-26.07-10.83-14.54-14-30-17-66.24-3.75-41.85-4.58-98.56-6-155.54C4,200.57,4.13,143.44,7.9,100.74,10.43,67.05,14.42,44.4,24.65,30,39,17.77,63.48,11.69,100,8.69c50-5.85,102.06-7,155.88-6.87,55.39.09,108.56,1.67,156,6.34,32,2.56,58.48,8.07,73.07,21.56Z" transform="translate(-1.83 -1.82)"/><path class="cls-2" d="M342,203.58c1.67-.33,4.14-.88,6.94-1.49h21.67l3.37-5a.72.72,0,0,1,.27,0l8.39-12.11-.41,0,.88-1.31H265.69l4.52,18.48h32.05l-53.93,48.68c-11-15.2-36.8-46.87-54.8-73.08H233.9V163.62l.46-3.1a3.1,3.1,0,0,0-.46-.06v-1.27H100v18.49h39.71c15.41,12.05,74.36,85.65,76.81,93,1,6.87,1.88,47.45-1,50.51-5.8,6.13-32.23,4.51-38.6,5l-2.2,12.57c11.64.35,49.54-.94,61.32-.94,23.22,0,63.88-.11,69.61.33l.71-13.19c-5.87-1-37.87-.12-42.29-1.13-1-6.39-2.06-49.1-1.08-53.52C267.4,257.52,334.65,205.56,342,203.58Z" transform="translate(-1.83 -1.82)"/><path class="cls-2" d="M361.52,304.55l18,1.43,21-81c-3.5-.12-35.3-3.12-39.43-3.92Z" transform="translate(-1.83 -1.82)"/><polygon class="cls-2" points="356.57 315.7 356.68 335.46 365.78 336.26 375.62 336.99 378.51 317.64 368.14 317.13 356.57 315.7"/></svg>